<svg id="svg" xmlns="http://www.w3.org/2000/svg" width="1200" height="850"><g><g transform="translate(0, 0)" stroke="black"><g transform="translate(11.11111111111111, 11.11111111111111)"><g transform="scale(3.8610038610038613, 4.201680672268908) " fill="none" stroke-linecap="round" stroke-linejoin="round" stroke-width="1" paint-order="markers fill stroke"><g id="eye1"><ellipse cx="9.1" cy="10.4" rx="3.0002610408625086" ry="3.0002610408625086"></ellipse><g transform="translate(9.1, 10.4) rotate(110.79902840884148)"><ellipse cx="0" cy="-1.5001305204312543" rx="0.6918306939180532" ry="0.6918306939180532"></ellipse><ellipse cx="0" cy="-1.5001305204312543" rx="0.3459153469590266" ry="0.3459153469590266"></ellipse></g></g><g id="eye2"><ellipse cx="17.1" cy="10.4" rx="3.0002610408625086" ry="3.0002610408625086"></ellipse><g transform="translate(17.1, 10.4) rotate(110.79902840884148)"><ellipse cx="0" cy="-1.5001305204312543" rx="0.6918306939180532" ry="0.6918306939180532"></ellipse><ellipse cx="0" cy="-1.5001305204312543" rx="0.3459153469590266" ry="0.3459153469590266"></ellipse></g></g><g id="mouth"><path d="
    M   8.89207360455493 18.03105686559126, 
    S   9,              16.4
        13,              16.5, 
    C   16,              17.1
        17.5,            16.5
        18.8735087434772   18.03105686559126"></path></g><g id="head"><ellipse cx="13.2" cy="12.2" rx="9.681219252438567" ry="9.921534381158867"></ellipse><g transform="translate(0.8187807475614335, 0)"><path d="M.3 12.3c0 1.4 1 2.6 2.4 2.6m0-5.2a2.5 2.5 0 00-2.4 2.6"></path></g><g transform="translate(-0.8187807475614335, 0)"><path d="M26.2 12.3c0 1.4-1.1 2.6-2.5 2.6m0-5.2c1.4 0 2.5 1.2 2.5 2.6"></path></g></g></g></g><g transform="translate(11.11111111111111, 133.33333333333334)"><g transform="scale(3.8610038610038613, 4.201680672268908) " fill="none" stroke-linecap="round" stroke-linejoin="round" stroke-width="1" paint-order="markers fill stroke"><g id="eye1"><ellipse cx="9.1" cy="10.4" rx="3.4304913833888313" ry="3.4304913833888313"></ellipse><g transform="translate(9.1, 10.4) rotate(101.82148834060723)"><ellipse cx="0" cy="-1.7152456916944157" rx="0.7463251727383914" ry="0.7463251727383914"></ellipse><ellipse cx="0" cy="-1.7152456916944157" rx="0.3731625863691957" ry="0.3731625863691957"></ellipse></g></g><g id="eye2"><ellipse cx="17.1" cy="10.4" rx="3.4304913833888313" ry="3.4304913833888313"></ellipse><g transform="translate(17.1, 10.4) rotate(101.82148834060723)"><ellipse cx="0" cy="-1.7152456916944157" rx="0.7463251727383914" ry="0.7463251727383914"></ellipse><ellipse cx="0" cy="-1.7152456916944157" rx="0.3731625863691957" ry="0.3731625863691957"></ellipse></g></g><g id="mouth"><path d="
    M   8.078174545025497 17.501931613696733, 
    S   9,              16.4
        13,              16.5, 
    C   16,              17.1
        17.5,            16.5
        18.996346133922955   17.501931613696733"></path></g><g id="head"><ellipse cx="13.2" cy="12.2" rx="9.275908103386055" ry="10.331615256528318"></ellipse><g transform="translate(1.2240918966139454, 0)"><path d="M.3 12.3c0 1.4 1 2.6 2.4 2.6m0-5.2a2.5 2.5 0 00-2.4 2.6"></path></g><g transform="translate(-1.2240918966139454, 0)"><path d="M26.2 12.3c0 1.4-1.1 2.6-2.5 2.6m0-5.2c1.4 0 2.5 1.2 2.5 2.6"></path></g></g></g></g><g transform="translate(11.11111111111111, 255.55555555555557)"><g transform="scale(3.8610038610038613, 4.201680672268908) " fill="none" stroke-linecap="round" stroke-linejoin="round" stroke-width="1" paint-order="markers fill stroke"><g id="eye1"><ellipse cx="9.1" cy="10.4" rx="2.8008138120962762" ry="2.8008138120962762"></ellipse><g transform="translate(9.1, 10.4) rotate(92.2196555531979)"><ellipse cx="0" cy="-1.4004069060481381" rx="0.7676412954073808" ry="0.7676412954073808"></ellipse><ellipse cx="0" cy="-1.4004069060481381" rx="0.3838206477036904" ry="0.3838206477036904"></ellipse></g></g><g id="eye2"><ellipse cx="17.1" cy="10.4" rx="2.8008138120962762" ry="2.8008138120962762"></ellipse><g transform="translate(17.1, 10.4) rotate(92.2196555531979)"><ellipse cx="0" cy="-1.4004069060481381" rx="0.7676412954073808" ry="0.7676412954073808"></ellipse><ellipse cx="0" cy="-1.4004069060481381" rx="0.3838206477036904" ry="0.3838206477036904"></ellipse></g></g><g id="mouth"><path d="
    M   8.686713303944199 17.74913155438688, 
    S   9,              16.4
        13,              16.5, 
    C   16,              17.1
        17.5,            16.5
        19.317400925848556   17.74913155438688"></path></g><g id="head"><ellipse cx="13.2" cy="12.2" rx="9.76670860658256" ry="9.96076817652322"></ellipse><g transform="translate(0.7332913934174403, 0)"><path d="M.3 12.3c0 1.4 1 2.6 2.4 2.6m0-5.2a2.5 2.5 0 00-2.4 2.6"></path></g><g transform="translate(-0.7332913934174403, 0)"><path d="M26.2 12.3c0 1.4-1.1 2.6-2.5 2.6m0-5.2c1.4 0 2.5 1.2 2.5 2.6"></path></g></g></g></g><g transform="translate(11.11111111111111, 377.77777777777777)"><g transform="scale(3.8610038610038613, 4.201680672268908) " fill="none" stroke-linecap="round" stroke-linejoin="round" stroke-width="1" paint-order="markers fill stroke"><g id="eye1"><ellipse cx="9.1" cy="10.4" rx="2.8534849906518343" ry="2.8534849906518343"></ellipse><g transform="translate(9.1, 10.4) rotate(442.4926533330504)"><ellipse cx="0" cy="-1.4267424953259171" rx="0.7410395235733678" ry="0.7410395235733678"></ellipse><ellipse cx="0" cy="-1.4267424953259171" rx="0.3705197617866839" ry="0.3705197617866839"></ellipse></g></g><g id="eye2"><ellipse cx="17.1" cy="10.4" rx="2.8534849906518343" ry="2.8534849906518343"></ellipse><g transform="translate(17.1, 10.4) rotate(442.4926533330504)"><ellipse cx="0" cy="-1.4267424953259171" rx="0.7410395235733678" ry="0.7410395235733678"></ellipse><ellipse cx="0" cy="-1.4267424953259171" rx="0.3705197617866839" ry="0.3705197617866839"></ellipse></g></g><g id="mouth"><path d="
    M   8.654973009993348 17.854412289823994, 
    S   9,              16.4
        13,              16.5, 
    C   16,              17.1
        17.5,            16.5
        19.390202389941933   17.854412289823994"></path></g><g id="head"><ellipse cx="13.2" cy="12.2" rx="9.688568047104624" ry="9.338656611727009"></ellipse><g transform="translate(0.8114319528953757, 0)"><path d="M.3 12.3c0 1.4 1 2.6 2.4 2.6m0-5.2a2.5 2.5 0 00-2.4 2.6"></path></g><g transform="translate(-0.8114319528953757, 0)"><path d="M26.2 12.3c0 1.4-1.1 2.6-2.5 2.6m0-5.2c1.4 0 2.5 1.2 2.5 2.6"></path></g></g></g></g><g transform="translate(11.11111111111111, 500)"><g transform="scale(3.8610038610038613, 4.201680672268908) " fill="none" stroke-linecap="round" stroke-linejoin="round" stroke-width="1" paint-order="markers fill stroke"><g id="eye1"><ellipse cx="9.1" cy="10.4" rx="2.8458131492906187" ry="2.8458131492906187"></ellipse><g transform="translate(9.1, 10.4) rotate(433.17859010995915)"><ellipse cx="0" cy="-1.4229065746453093" rx="0.6283894349762162" ry="0.6283894349762162"></ellipse><ellipse cx="0" cy="-1.4229065746453093" rx="0.3141947174881081" ry="0.3141947174881081"></ellipse></g></g><g id="eye2"><ellipse cx="17.1" cy="10.4" rx="2.8458131492906187" ry="2.8458131492906187"></ellipse><g transform="translate(17.1, 10.4) rotate(433.17859010995915)"><ellipse cx="0" cy="-1.4229065746453093" rx="0.6283894349762162" ry="0.6283894349762162"></ellipse><ellipse cx="0" cy="-1.4229065746453093" rx="0.3141947174881081" ry="0.3141947174881081"></ellipse></g></g><g id="mouth"><path d="
    M   8.007584797922126 17.534781589018884, 
    S   9,              16.4
        13,              16.5, 
    C   16,              17.1
        17.5,            16.5
        19.39436992289924   17.534781589018884"></path></g><g id="head"><ellipse cx="13.2" cy="12.2" rx="9.407446452382281" ry="10.627580583230458"></ellipse><g transform="translate(1.0925535476177188, 0)"><path d="M.3 12.3c0 1.4 1 2.6 2.4 2.6m0-5.2a2.5 2.5 0 00-2.4 2.6"></path></g><g transform="translate(-1.0925535476177188, 0)"><path d="M26.2 12.3c0 1.4-1.1 2.6-2.5 2.6m0-5.2c1.4 0 2.5 1.2 2.5 2.6"></path></g></g></g></g><g transform="translate(11.11111111111111, 622.2222222222222)"><g transform="scale(3.8610038610038613, 4.201680672268908) " fill="none" stroke-linecap="round" stroke-linejoin="round" stroke-width="1" paint-order="markers fill stroke"><g id="eye1"><ellipse cx="9.1" cy="10.4" rx="2.6673257110078255" ry="2.6673257110078255"></ellipse><g transform="translate(9.1, 10.4) rotate(424.6920212387365)"><ellipse cx="0" cy="-1.3336628555039127" rx="0.7612431979586737" ry="0.7612431979586737"></ellipse><ellipse cx="0" cy="-1.3336628555039127" rx="0.38062159897933684" ry="0.38062159897933684"></ellipse></g></g><g id="eye2"><ellipse cx="17.1" cy="10.4" rx="2.6673257110078255" ry="2.6673257110078255"></ellipse><g transform="translate(17.1, 10.4) rotate(424.6920212387365)"><ellipse cx="0" cy="-1.3336628555039127" rx="0.7612431979586737" ry="0.7612431979586737"></ellipse><ellipse cx="0" cy="-1.3336628555039127" rx="0.38062159897933684" ry="0.38062159897933684"></ellipse></g></g><g id="mouth"><path d="
    M   8.681378351492011 17.363807463529746, 
    S   9,              16.4
        13,              16.5, 
    C   16,              17.1
        17.5,            16.5
        18.50292569736206   17.363807463529746"></path></g><g id="head"><ellipse cx="13.2" cy="12.2" rx="9.65114324531594" ry="9.240979079057682"></ellipse><g transform="translate(0.8488567546840606, 0)"><path d="M.3 12.3c0 1.4 1 2.6 2.4 2.6m0-5.2a2.5 2.5 0 00-2.4 2.6"></path></g><g transform="translate(-0.8488567546840606, 0)"><path d="M26.2 12.3c0 1.4-1.1 2.6-2.5 2.6m0-5.2c1.4 0 2.5 1.2 2.5 2.6"></path></g></g></g></g><g transform="translate(133.33333333333334, 11.11111111111111)"><g transform="scale(3.8610038610038613, 4.201680672268908) " fill="none" stroke-linecap="round" stroke-linejoin="round" stroke-width="1" paint-order="markers fill stroke"><g id="eye1"><ellipse cx="9.1" cy="10.4" rx="2.7798371012337793" ry="2.7798371012337793"></ellipse><g transform="translate(9.1, 10.4) rotate(114.60512391795163)"><ellipse cx="0" cy="-1.3899185506168896" rx="0.6735096664782515" ry="0.6735096664782515"></ellipse><ellipse cx="0" cy="-1.3899185506168896" rx="0.33675483323912575" ry="0.33675483323912575"></ellipse></g></g><g id="eye2"><ellipse cx="17.1" cy="10.4" rx="2.7798371012337793" ry="2.7798371012337793"></ellipse><g transform="translate(17.1, 10.4) rotate(114.60512391795163)"><ellipse cx="0" cy="-1.3899185506168896" rx="0.6735096664782515" ry="0.6735096664782515"></ellipse><ellipse cx="0" cy="-1.3899185506168896" rx="0.33675483323912575" ry="0.33675483323912575"></ellipse></g></g><g id="mouth"><path d="
    M   8.29719511044853 17.81423027845931, 
    S   9,              16.4
        13,              16.5, 
    C   16,              17.1
        17.5,            16.5
        18.692650661096522   17.81423027845931"></path></g><g id="head"><ellipse cx="13.2" cy="12.2" rx="10.733012859155053" ry="10.673447689009453"></ellipse><g transform="translate(-0.23301285915505332, 0)"><path d="M.3 12.3c0 1.4 1 2.6 2.4 2.6m0-5.2a2.5 2.5 0 00-2.4 2.6"></path></g><g transform="translate(0.23301285915505332, 0)"><path d="M26.2 12.3c0 1.4-1.1 2.6-2.5 2.6m0-5.2c1.4 0 2.5 1.2 2.5 2.6"></path></g></g></g></g><g transform="translate(133.33333333333334, 133.33333333333334)"><g transform="scale(3.8610038610038613, 4.201680672268908) " fill="none" stroke-linecap="round" stroke-linejoin="round" stroke-width="1" paint-order="markers fill stroke"><g id="eye1"><ellipse cx="9.1" cy="10.4" rx="3.153135402544793" ry="3.153135402544793"></ellipse><g transform="translate(9.1, 10.4) rotate(104.16216805531275)"><ellipse cx="0" cy="-1.5765677012723964" rx="0.6944815536362138" ry="0.6944815536362138"></ellipse><ellipse cx="0" cy="-1.5765677012723964" rx="0.3472407768181069" ry="0.3472407768181069"></ellipse></g></g><g id="eye2"><ellipse cx="17.1" cy="10.4" rx="3.153135402544793" ry="3.153135402544793"></ellipse><g transform="translate(17.1, 10.4) rotate(104.16216805531275)"><ellipse cx="0" cy="-1.5765677012723964" rx="0.6944815536362138" ry="0.6944815536362138"></ellipse><ellipse cx="0" cy="-1.5765677012723964" rx="0.3472407768181069" ry="0.3472407768181069"></ellipse></g></g><g id="mouth"><path d="
    M   8.544463757105456 17.434432308413765, 
    S   9,              16.4
        13,              16.5, 
    C   16,              17.1
        17.5,            16.5
        18.681034755533204   17.434432308413765"></path></g><g id="head"><ellipse cx="13.2" cy="12.2" rx="10.060131870611709" ry="9.089961756830064"></ellipse><g transform="translate(0.4398681293882909, 0)"><path d="M.3 12.3c0 1.4 1 2.6 2.4 2.6m0-5.2a2.5 2.5 0 00-2.4 2.6"></path></g><g transform="translate(-0.4398681293882909, 0)"><path d="M26.2 12.3c0 1.4-1.1 2.6-2.5 2.6m0-5.2c1.4 0 2.5 1.2 2.5 2.6"></path></g></g></g></g><g transform="translate(133.33333333333334, 255.55555555555557)"><g transform="scale(3.8610038610038613, 4.201680672268908) " fill="none" stroke-linecap="round" stroke-linejoin="round" stroke-width="1" paint-order="markers fill stroke"><g id="eye1"><ellipse cx="9.1" cy="10.4" rx="2.742161148403262" ry="2.742161148403262"></ellipse><g transform="translate(9.1, 10.4) rotate(92.67542665602915)"><ellipse cx="0" cy="-1.371080574201631" rx="0.6043080503240715" ry="0.6043080503240715"></ellipse><ellipse cx="0" cy="-1.371080574201631" rx="0.30215402516203577" ry="0.30215402516203577"></ellipse></g></g><g id="eye2"><ellipse cx="17.1" cy="10.4" rx="2.742161148403262" ry="2.742161148403262"></ellipse><g transform="translate(17.1, 10.4) rotate(92.67542665602915)"><ellipse cx="0" cy="-1.371080574201631" rx="0.6043080503240715" ry="0.6043080503240715"></ellipse><ellipse cx="0" cy="-1.371080574201631" rx="0.30215402516203577" ry="0.30215402516203577"></ellipse></g></g><g id="mouth"><path d="
    M   8.054048712076451 17.371194706693114, 
    S   9,              16.4
        13,              16.5, 
    C   16,              17.1
        17.5,            16.5
        19.34271585276544   17.371194706693114"></path></g><g id="head"><ellipse cx="13.2" cy="12.2" rx="9.183996722046757" ry="9.868960735579304"></ellipse><g transform="translate(1.316003277953243, 0)"><path d="M.3 12.3c0 1.4 1 2.6 2.4 2.6m0-5.2a2.5 2.5 0 00-2.4 2.6"></path></g><g transform="translate(-1.316003277953243, 0)"><path d="M26.2 12.3c0 1.4-1.1 2.6-2.5 2.6m0-5.2c1.4 0 2.5 1.2 2.5 2.6"></path></g></g></g></g><g transform="translate(133.33333333333334, 377.77777777777777)"><g transform="scale(3.8610038610038613, 4.201680672268908) " fill="none" stroke-linecap="round" stroke-linejoin="round" stroke-width="1" paint-order="markers fill stroke"><g id="eye1"><ellipse cx="9.1" cy="10.4" rx="2.563369006284275" ry="2.563369006284275"></ellipse><g transform="translate(9.1, 10.4) rotate(440.9723870492849)"><ellipse cx="0" cy="-1.2816845031421376" rx="0.6627484864686768" ry="0.6627484864686768"></ellipse><ellipse cx="0" cy="-1.2816845031421376" rx="0.3313742432343384" ry="0.3313742432343384"></ellipse></g></g><g id="eye2"><ellipse cx="17.1" cy="10.4" rx="2.563369006284275" ry="2.563369006284275"></ellipse><g transform="translate(17.1, 10.4) rotate(440.9723870492849)"><ellipse cx="0" cy="-1.2816845031421376" rx="0.6627484864686768" ry="0.6627484864686768"></ellipse><ellipse cx="0" cy="-1.2816845031421376" rx="0.3313742432343384" ry="0.3313742432343384"></ellipse></g></g><g id="mouth"><path d="
    M   8.01971672379522 17.583186351277845, 
    S   9,              16.4
        13,              16.5, 
    C   16,              17.1
        17.5,            16.5
        18.544631770099677   17.583186351277845"></path></g><g id="head"><ellipse cx="13.2" cy="12.2" rx="10.315687157220296" ry="9.879550345869184"></ellipse><g transform="translate(0.18431284277970406, 0)"><path d="M.3 12.3c0 1.4 1 2.6 2.4 2.6m0-5.2a2.5 2.5 0 00-2.4 2.6"></path></g><g transform="translate(-0.18431284277970406, 0)"><path d="M26.2 12.3c0 1.4-1.1 2.6-2.5 2.6m0-5.2c1.4 0 2.5 1.2 2.5 2.6"></path></g></g></g></g><g transform="translate(133.33333333333334, 500)"><g transform="scale(3.8610038610038613, 4.201680672268908) " fill="none" stroke-linecap="round" stroke-linejoin="round" stroke-width="1" paint-order="markers fill stroke"><g id="eye1"><ellipse cx="9.1" cy="10.4" rx="3.2913966068366625" ry="3.2913966068366625"></ellipse><g transform="translate(9.1, 10.4) rotate(429.9739109058834)"><ellipse cx="0" cy="-1.6456983034183312" rx="0.6894343988354902" ry="0.6894343988354902"></ellipse><ellipse cx="0" cy="-1.6456983034183312" rx="0.3447171994177451" ry="0.3447171994177451"></ellipse></g></g><g id="eye2"><ellipse cx="17.1" cy="10.4" rx="3.2913966068366625" ry="3.2913966068366625"></ellipse><g transform="translate(17.1, 10.4) rotate(429.9739109058834)"><ellipse cx="0" cy="-1.6456983034183312" rx="0.6894343988354902" ry="0.6894343988354902"></ellipse><ellipse cx="0" cy="-1.6456983034183312" rx="0.3447171994177451" ry="0.3447171994177451"></ellipse></g></g><g id="mouth"><path d="
    M   8.997722629881931 17.834784557861866, 
    S   9,              16.4
        13,              16.5, 
    C   16,              17.1
        17.5,            16.5
        19.48727388742219   17.834784557861866"></path></g><g id="head"><ellipse cx="13.2" cy="12.2" rx="9.94075530818323" ry="10.12430275043273"></ellipse><g transform="translate(0.5592446918167706, 0)"><path d="M.3 12.3c0 1.4 1 2.6 2.4 2.6m0-5.2a2.5 2.5 0 00-2.4 2.6"></path></g><g transform="translate(-0.5592446918167706, 0)"><path d="M26.2 12.3c0 1.4-1.1 2.6-2.5 2.6m0-5.2c1.4 0 2.5 1.2 2.5 2.6"></path></g></g></g></g><g transform="translate(133.33333333333334, 622.2222222222222)"><g transform="scale(3.8610038610038613, 4.201680672268908) " fill="none" stroke-linecap="round" stroke-linejoin="round" stroke-width="1" paint-order="markers fill stroke"><g id="eye1"><ellipse cx="9.1" cy="10.4" rx="2.6125177605065284" ry="2.6125177605065284"></ellipse><g transform="translate(9.1, 10.4) rotate(420.3128183608063)"><ellipse cx="0" cy="-1.3062588802532642" rx="0.612340940696034" ry="0.612340940696034"></ellipse><ellipse cx="0" cy="-1.3062588802532642" rx="0.306170470348017" ry="0.306170470348017"></ellipse></g></g><g id="eye2"><ellipse cx="17.1" cy="10.4" rx="2.6125177605065284" ry="2.6125177605065284"></ellipse><g transform="translate(17.1, 10.4) rotate(420.3128183608063)"><ellipse cx="0" cy="-1.3062588802532642" rx="0.612340940696034" ry="0.612340940696034"></ellipse><ellipse cx="0" cy="-1.3062588802532642" rx="0.306170470348017" ry="0.306170470348017"></ellipse></g></g><g id="mouth"><path d="
    M   8.50986581312196 17.313207535597407, 
    S   9,              16.4
        13,              16.5, 
    C   16,              17.1
        17.5,            16.5
        19.166094447007474   17.313207535597407"></path></g><g id="head"><ellipse cx="13.2" cy="12.2" rx="10.618379797906753" ry="9.484237668191541"></ellipse><g transform="translate(-0.11837979790675313, 0)"><path d="M.3 12.3c0 1.4 1 2.6 2.4 2.6m0-5.2a2.5 2.5 0 00-2.4 2.6"></path></g><g transform="translate(0.11837979790675313, 0)"><path d="M26.2 12.3c0 1.4-1.1 2.6-2.5 2.6m0-5.2c1.4 0 2.5 1.2 2.5 2.6"></path></g></g></g></g><g transform="translate(255.55555555555557, 11.11111111111111)"><g transform="scale(3.8610038610038613, 4.201680672268908) " fill="none" stroke-linecap="round" stroke-linejoin="round" stroke-width="1" paint-order="markers fill stroke"><g id="eye1"><ellipse cx="9.1" cy="10.4" rx="3.498850664245043" ry="3.498850664245043"></ellipse><g transform="translate(9.1, 10.4) rotate(119.96218409641776)"><ellipse cx="0" cy="-1.7494253321225215" rx="0.7361339249210798" ry="0.7361339249210798"></ellipse><ellipse cx="0" cy="-1.7494253321225215" rx="0.3680669624605399" ry="0.3680669624605399"></ellipse></g></g><g id="eye2"><ellipse cx="17.1" cy="10.4" rx="3.498850664245043" ry="3.498850664245043"></ellipse><g transform="translate(17.1, 10.4) rotate(119.96218409641776)"><ellipse cx="0" cy="-1.7494253321225215" rx="0.7361339249210798" ry="0.7361339249210798"></ellipse><ellipse cx="0" cy="-1.7494253321225215" rx="0.3680669624605399" ry="0.3680669624605399"></ellipse></g></g><g id="mouth"><path d="
    M   8.254682600574125 17.572384895437587, 
    S   9,              16.4
        13,              16.5, 
    C   16,              17.1
        17.5,            16.5
        19.144172874539326   17.572384895437587"></path></g><g id="head"><ellipse cx="13.2" cy="12.2" rx="9.428099728419056" ry="10.936058624979253"></ellipse><g transform="translate(1.0719002715809438, 0)"><path d="M.3 12.3c0 1.4 1 2.6 2.4 2.6m0-5.2a2.5 2.5 0 00-2.4 2.6"></path></g><g transform="translate(-1.0719002715809438, 0)"><path d="M26.2 12.3c0 1.4-1.1 2.6-2.5 2.6m0-5.2c1.4 0 2.5 1.2 2.5 2.6"></path></g></g></g></g><g transform="translate(255.55555555555557, 133.33333333333334)"><g transform="scale(3.8610038610038613, 4.201680672268908) " fill="none" stroke-linecap="round" stroke-linejoin="round" stroke-width="1" paint-order="markers fill stroke"><g id="eye1"><ellipse cx="9.1" cy="10.4" rx="3.453968873655344" ry="3.453968873655344"></ellipse><g transform="translate(9.1, 10.4) rotate(107.62229722866826)"><ellipse cx="0" cy="-1.726984436827672" rx="0.6112069910686214" ry="0.6112069910686214"></ellipse><ellipse cx="0" cy="-1.726984436827672" rx="0.3056034955343107" ry="0.3056034955343107"></ellipse></g></g><g id="eye2"><ellipse cx="17.1" cy="10.4" rx="3.453968873655344" ry="3.453968873655344"></ellipse><g transform="translate(17.1, 10.4) rotate(107.62229722866826)"><ellipse cx="0" cy="-1.726984436827672" rx="0.6112069910686214" ry="0.6112069910686214"></ellipse><ellipse cx="0" cy="-1.726984436827672" rx="0.3056034955343107" ry="0.3056034955343107"></ellipse></g></g><g id="mouth"><path d="
    M   8.538035901986628 17.911632517447874, 
    S   9,              16.4
        13,              16.5, 
    C   16,              17.1
        17.5,            16.5
        18.66631282354195   17.911632517447874"></path></g><g id="head"><ellipse cx="13.2" cy="12.2" rx="10.572099018223355" ry="9.039422454695979"></ellipse><g transform="translate(-0.07209901822335496, 0)"><path d="M.3 12.3c0 1.4 1 2.6 2.4 2.6m0-5.2a2.5 2.5 0 00-2.4 2.6"></path></g><g transform="translate(0.07209901822335496, 0)"><path d="M26.2 12.3c0 1.4-1.1 2.6-2.5 2.6m0-5.2c1.4 0 2.5 1.2 2.5 2.6"></path></g></g></g></g><g transform="translate(255.55555555555557, 255.55555555555557)"><g transform="scale(3.8610038610038613, 4.201680672268908) " fill="none" stroke-linecap="round" stroke-linejoin="round" stroke-width="1" paint-order="markers fill stroke"><g id="eye1"><ellipse cx="9.1" cy="10.4" rx="2.9592251946908688" ry="2.9592251946908688"></ellipse><g transform="translate(9.1, 10.4) rotate(93.36646066342982)"><ellipse cx="0" cy="-1.4796125973454344" rx="0.6695177873778054" ry="0.6695177873778054"></ellipse><ellipse cx="0" cy="-1.4796125973454344" rx="0.3347588936889027" ry="0.3347588936889027"></ellipse></g></g><g id="eye2"><ellipse cx="17.1" cy="10.4" rx="2.9592251946908688" ry="2.9592251946908688"></ellipse><g transform="translate(17.1, 10.4) rotate(93.36646066342982)"><ellipse cx="0" cy="-1.4796125973454344" rx="0.6695177873778054" ry="0.6695177873778054"></ellipse><ellipse cx="0" cy="-1.4796125973454344" rx="0.3347588936889027" ry="0.3347588936889027"></ellipse></g></g><g id="mouth"><path d="
    M   8.941292146525008 17.823187268321345, 
    S   9,              16.4
        13,              16.5, 
    C   16,              17.1
        17.5,            16.5
        19.177763910470155   17.823187268321345"></path></g><g id="head"><ellipse cx="13.2" cy="12.2" rx="10.99568696508828" ry="10.712310907097816"></ellipse><g transform="translate(-0.4956869650882805, 0)"><path d="M.3 12.3c0 1.4 1 2.6 2.4 2.6m0-5.2a2.5 2.5 0 00-2.4 2.6"></path></g><g transform="translate(0.4956869650882805, 0)"><path d="M26.2 12.3c0 1.4-1.1 2.6-2.5 2.6m0-5.2c1.4 0 2.5 1.2 2.5 2.6"></path></g></g></g></g><g transform="translate(255.55555555555557, 377.77777777777777)"><g transform="scale(3.8610038610038613, 4.201680672268908) " fill="none" stroke-linecap="round" stroke-linejoin="round" stroke-width="1" paint-order="markers fill stroke"><g id="eye1"><ellipse cx="9.1" cy="10.4" rx="3.0948925984232583" ry="3.0948925984232583"></ellipse><g transform="translate(9.1, 10.4) rotate(438.69006752597977)"><ellipse cx="0" cy="-1.5474462992116291" rx="0.6258308235555601" ry="0.6258308235555601"></ellipse><ellipse cx="0" cy="-1.5474462992116291" rx="0.31291541177778004" ry="0.31291541177778004"></ellipse></g></g><g id="eye2"><ellipse cx="17.1" cy="10.4" rx="3.0948925984232583" ry="3.0948925984232583"></ellipse><g transform="translate(17.1, 10.4) rotate(438.69006752597977)"><ellipse cx="0" cy="-1.5474462992116291" rx="0.6258308235555601" ry="0.6258308235555601"></ellipse><ellipse cx="0" cy="-1.5474462992116291" rx="0.31291541177778004" ry="0.31291541177778004"></ellipse></g></g><g id="mouth"><path d="
    M   8.645552660856527 17.50716914583142, 
    S   9,              16.4
        13,              16.5, 
    C   16,              17.1
        17.5,            16.5
        19.276107570765554   17.50716914583142"></path></g><g id="head"><ellipse cx="13.2" cy="12.2" rx="10.909481120482768" ry="9.798581051925169"></ellipse><g transform="translate(-0.4094811204827682, 0)"><path d="M.3 12.3c0 1.4 1 2.6 2.4 2.6m0-5.2a2.5 2.5 0 00-2.4 2.6"></path></g><g transform="translate(0.4094811204827682, 0)"><path d="M26.2 12.3c0 1.4-1.1 2.6-2.5 2.6m0-5.2c1.4 0 2.5 1.2 2.5 2.6"></path></g></g></g></g><g transform="translate(255.55555555555557, 500)"><g transform="scale(3.8610038610038613, 4.201680672268908) " fill="none" stroke-linecap="round" stroke-linejoin="round" stroke-width="1" paint-order="markers fill stroke"><g id="eye1"><ellipse cx="9.1" cy="10.4" rx="3.4736432334343252" ry="3.4736432334343252"></ellipse><g transform="translate(9.1, 10.4) rotate(425.35322914806886)"><ellipse cx="0" cy="-1.7368216167171626" rx="0.714350119218142" ry="0.714350119218142"></ellipse><ellipse cx="0" cy="-1.7368216167171626" rx="0.357175059609071" ry="0.357175059609071"></ellipse></g></g><g id="eye2"><ellipse cx="17.1" cy="10.4" rx="3.4736432334343252" ry="3.4736432334343252"></ellipse><g transform="translate(17.1, 10.4) rotate(425.35322914806886)"><ellipse cx="0" cy="-1.7368216167171626" rx="0.714350119218142" ry="0.714350119218142"></ellipse><ellipse cx="0" cy="-1.7368216167171626" rx="0.357175059609071" ry="0.357175059609071"></ellipse></g></g><g id="mouth"><path d="
    M   8.467471407205862 17.35744823160492, 
    S   9,              16.4
        13,              16.5, 
    C   16,              17.1
        17.5,            16.5
        18.91342725893767   17.35744823160492"></path></g><g id="head"><ellipse cx="13.2" cy="12.2" rx="9.409432023264813" ry="9.25896180335078"></ellipse><g transform="translate(1.090567976735187, 0)"><path d="M.3 12.3c0 1.4 1 2.6 2.4 2.6m0-5.2a2.5 2.5 0 00-2.4 2.6"></path></g><g transform="translate(-1.090567976735187, 0)"><path d="M26.2 12.3c0 1.4-1.1 2.6-2.5 2.6m0-5.2c1.4 0 2.5 1.2 2.5 2.6"></path></g></g></g></g><g transform="translate(255.55555555555557, 622.2222222222222)"><g transform="scale(3.8610038610038613, 4.201680672268908) " fill="none" stroke-linecap="round" stroke-linejoin="round" stroke-width="1" paint-order="markers fill stroke"><g id="eye1"><ellipse cx="9.1" cy="10.4" rx="2.6270130649920276" ry="2.6270130649920276"></ellipse><g transform="translate(9.1, 10.4) rotate(414.3349984631383)"><ellipse cx="0" cy="-1.3135065324960138" rx="0.760821806282715" ry="0.760821806282715"></ellipse><ellipse cx="0" cy="-1.3135065324960138" rx="0.3804109031413575" ry="0.3804109031413575"></ellipse></g></g><g id="eye2"><ellipse cx="17.1" cy="10.4" rx="2.6270130649920276" ry="2.6270130649920276"></ellipse><g transform="translate(17.1, 10.4) rotate(414.3349984631383)"><ellipse cx="0" cy="-1.3135065324960138" rx="0.760821806282715" ry="0.760821806282715"></ellipse><ellipse cx="0" cy="-1.3135065324960138" rx="0.3804109031413575" ry="0.3804109031413575"></ellipse></g></g><g id="mouth"><path d="
    M   8.369010414549916 17.50668144156666, 
    S   9,              16.4
        13,              16.5, 
    C   16,              17.1
        17.5,            16.5
        18.74581804037778   17.50668144156666"></path></g><g id="head"><ellipse cx="13.2" cy="12.2" rx="10.229311808956869" ry="9.907138381725249"></ellipse><g transform="translate(0.27068819104313135, 0)"><path d="M.3 12.3c0 1.4 1 2.6 2.4 2.6m0-5.2a2.5 2.5 0 00-2.4 2.6"></path></g><g transform="translate(-0.27068819104313135, 0)"><path d="M26.2 12.3c0 1.4-1.1 2.6-2.5 2.6m0-5.2c1.4 0 2.5 1.2 2.5 2.6"></path></g></g></g></g><g transform="translate(377.77777777777777, 11.11111111111111)"><g transform="scale(3.8610038610038613, 4.201680672268908) " fill="none" stroke-linecap="round" stroke-linejoin="round" stroke-width="1" paint-order="markers fill stroke"><g id="eye1"><ellipse cx="9.1" cy="10.4" rx="2.594271893668817" ry="2.594271893668817"></ellipse><g transform="translate(9.1, 10.4) rotate(127.87498365109818)"><ellipse cx="0" cy="-1.2971359468344086" rx="0.7694350019166947" ry="0.7694350019166947"></ellipse><ellipse cx="0" cy="-1.2971359468344086" rx="0.38471750095834734" ry="0.38471750095834734"></ellipse></g></g><g id="eye2"><ellipse cx="17.1" cy="10.4" rx="2.594271893668817" ry="2.594271893668817"></ellipse><g transform="translate(17.1, 10.4) rotate(127.87498365109818)"><ellipse cx="0" cy="-1.2971359468344086" rx="0.7694350019166947" ry="0.7694350019166947"></ellipse><ellipse cx="0" cy="-1.2971359468344086" rx="0.38471750095834734" ry="0.38471750095834734"></ellipse></g></g><g id="mouth"><path d="
    M   8.580313100418412 17.746765809704527, 
    S   9,              16.4
        13,              16.5, 
    C   16,              17.1
        17.5,            16.5
        19.48124872346793   17.746765809704527"></path></g><g id="head"><ellipse cx="13.2" cy="12.2" rx="10.23066791637625" ry="9.162834243561784"></ellipse><g transform="translate(0.26933208362375005, 0)"><path d="M.3 12.3c0 1.4 1 2.6 2.4 2.6m0-5.2a2.5 2.5 0 00-2.4 2.6"></path></g><g transform="translate(-0.26933208362375005, 0)"><path d="M26.2 12.3c0 1.4-1.1 2.6-2.5 2.6m0-5.2c1.4 0 2.5 1.2 2.5 2.6"></path></g></g></g></g><g transform="translate(377.77777777777777, 133.33333333333334)"><g transform="scale(3.8610038610038613, 4.201680672268908) " fill="none" stroke-linecap="round" stroke-linejoin="round" stroke-width="1" paint-order="markers fill stroke"><g id="eye1"><ellipse cx="9.1" cy="10.4" rx="2.867859502110616" ry="2.867859502110616"></ellipse><g transform="translate(9.1, 10.4) rotate(113.19859051364818)"><ellipse cx="0" cy="-1.433929751055308" rx="0.7912709033508359" ry="0.7912709033508359"></ellipse><ellipse cx="0" cy="-1.433929751055308" rx="0.39563545167541797" ry="0.39563545167541797"></ellipse></g></g><g id="eye2"><ellipse cx="17.1" cy="10.4" rx="2.867859502110616" ry="2.867859502110616"></ellipse><g transform="translate(17.1, 10.4) rotate(113.19859051364818)"><ellipse cx="0" cy="-1.433929751055308" rx="0.7912709033508359" ry="0.7912709033508359"></ellipse><ellipse cx="0" cy="-1.433929751055308" rx="0.39563545167541797" ry="0.39563545167541797"></ellipse></g></g><g id="mouth"><path d="
    M   8.713443955973352 17.24247867771071, 
    S   9,              16.4
        13,              16.5, 
    C   16,              17.1
        17.5,            16.5
        18.549801074325387   17.24247867771071"></path></g><g id="head"><ellipse cx="13.2" cy="12.2" rx="9.735769738276911" ry="9.544873222010764"></ellipse><g transform="translate(0.7642302617230889, 0)"><path d="M.3 12.3c0 1.4 1 2.6 2.4 2.6m0-5.2a2.5 2.5 0 00-2.4 2.6"></path></g><g transform="translate(-0.7642302617230889, 0)"><path d="M26.2 12.3c0 1.4-1.1 2.6-2.5 2.6m0-5.2c1.4 0 2.5 1.2 2.5 2.6"></path></g></g></g></g><g transform="translate(377.77777777777777, 255.55555555555557)"><g transform="scale(3.8610038610038613, 4.201680672268908) " fill="none" stroke-linecap="round" stroke-linejoin="round" stroke-width="1" paint-order="markers fill stroke"><g id="eye1"><ellipse cx="9.1" cy="10.4" rx="2.7170007732706893" ry="2.7170007732706893"></ellipse><g transform="translate(9.1, 10.4) rotate(94.53777250790665)"><ellipse cx="0" cy="-1.3585003866353447" rx="0.6919347067484354" ry="0.6919347067484354"></ellipse><ellipse cx="0" cy="-1.3585003866353447" rx="0.3459673533742177" ry="0.3459673533742177"></ellipse></g></g><g id="eye2"><ellipse cx="17.1" cy="10.4" rx="2.7170007732706893" ry="2.7170007732706893"></ellipse><g transform="translate(17.1, 10.4) rotate(94.53777250790665)"><ellipse cx="0" cy="-1.3585003866353447" rx="0.6919347067484354" ry="0.6919347067484354"></ellipse><ellipse cx="0" cy="-1.3585003866353447" rx="0.3459673533742177" ry="0.3459673533742177"></ellipse></g></g><g id="mouth"><path d="
    M   8.981659501248489 17.823240794783175, 
    S   9,              16.4
        13,              16.5, 
    C   16,              17.1
        17.5,            16.5
        19.10330533920337   17.823240794783175"></path></g><g id="head"><ellipse cx="13.2" cy="12.2" rx="10.178023536606563" ry="10.650957390864967"></ellipse><g transform="translate(0.3219764633934368, 0)"><path d="M.3 12.3c0 1.4 1 2.6 2.4 2.6m0-5.2a2.5 2.5 0 00-2.4 2.6"></path></g><g transform="translate(-0.3219764633934368, 0)"><path d="M26.2 12.3c0 1.4-1.1 2.6-2.5 2.6m0-5.2c1.4 0 2.5 1.2 2.5 2.6"></path></g></g></g></g><g transform="translate(377.77777777777777, 377.77777777777777)"><g transform="scale(3.8610038610038613, 4.201680672268908) " fill="none" stroke-linecap="round" stroke-linejoin="round" stroke-width="1" paint-order="markers fill stroke"><g id="eye1"><ellipse cx="9.1" cy="10.4" rx="2.834548364443375" ry="2.834548364443375"></ellipse><g transform="translate(9.1, 10.4) rotate(434.8989018386146)"><ellipse cx="0" cy="-1.4172741822216874" rx="0.7441633750620268" ry="0.7441633750620268"></ellipse><ellipse cx="0" cy="-1.4172741822216874" rx="0.3720816875310134" ry="0.3720816875310134"></ellipse></g></g><g id="eye2"><ellipse cx="17.1" cy="10.4" rx="2.834548364443375" ry="2.834548364443375"></ellipse><g transform="translate(17.1, 10.4) rotate(434.8989018386146)"><ellipse cx="0" cy="-1.4172741822216874" rx="0.7441633750620268" ry="0.7441633750620268"></ellipse><ellipse cx="0" cy="-1.4172741822216874" rx="0.3720816875310134" ry="0.3720816875310134"></ellipse></g></g><g id="mouth"><path d="
    M   8.75289905471128 17.609479006492663, 
    S   9,              16.4
        13,              16.5, 
    C   16,              17.1
        17.5,            16.5
        19.089046865072206   17.609479006492663"></path></g><g id="head"><ellipse cx="13.2" cy="12.2" rx="10.491256791874383" ry="9.928049669297753"></ellipse><g transform="translate(0.00874320812561713, 0)"><path d="M.3 12.3c0 1.4 1 2.6 2.4 2.6m0-5.2a2.5 2.5 0 00-2.4 2.6"></path></g><g transform="translate(-0.00874320812561713, 0)"><path d="M26.2 12.3c0 1.4-1.1 2.6-2.5 2.6m0-5.2c1.4 0 2.5 1.2 2.5 2.6"></path></g></g></g></g><g transform="translate(377.77777777777777, 500)"><g transform="scale(3.8610038610038613, 4.201680672268908) " fill="none" stroke-linecap="round" stroke-linejoin="round" stroke-width="1" paint-order="markers fill stroke"><g id="eye1"><ellipse cx="9.1" cy="10.4" rx="2.903413171680093" ry="2.903413171680093"></ellipse><g transform="translate(9.1, 10.4) rotate(418.2405199151872)"><ellipse cx="0" cy="-1.4517065858400464" rx="0.7283082194064578" ry="0.7283082194064578"></ellipse><ellipse cx="0" cy="-1.4517065858400464" rx="0.3641541097032289" ry="0.3641541097032289"></ellipse></g></g><g id="eye2"><ellipse cx="17.1" cy="10.4" rx="2.903413171680093" ry="2.903413171680093"></ellipse><g transform="translate(17.1, 10.4) rotate(418.2405199151872)"><ellipse cx="0" cy="-1.4517065858400464" rx="0.7283082194064578" ry="0.7283082194064578"></ellipse><ellipse cx="0" cy="-1.4517065858400464" rx="0.3641541097032289" ry="0.3641541097032289"></ellipse></g></g><g id="mouth"><path d="
    M   8.721607489552182 17.795379565882982, 
    S   9,              16.4
        13,              16.5, 
    C   16,              17.1
        17.5,            16.5
        19.294730773026277   17.795379565882982"></path></g><g id="head"><ellipse cx="13.2" cy="12.2" rx="9.11263175035416" ry="10.834226429990022"></ellipse><g transform="translate(1.3873682496458404, 0)"><path d="M.3 12.3c0 1.4 1 2.6 2.4 2.6m0-5.2a2.5 2.5 0 00-2.4 2.6"></path></g><g transform="translate(-1.3873682496458404, 0)"><path d="M26.2 12.3c0 1.4-1.1 2.6-2.5 2.6m0-5.2c1.4 0 2.5 1.2 2.5 2.6"></path></g></g></g></g><g transform="translate(377.77777777777777, 622.2222222222222)"><g transform="scale(3.8610038610038613, 4.201680672268908) " fill="none" stroke-linecap="round" stroke-linejoin="round" stroke-width="1" paint-order="markers fill stroke"><g id="eye1"><ellipse cx="9.1" cy="10.4" rx="2.7723460297484914" ry="2.7723460297484914"></ellipse><g transform="translate(9.1, 10.4) rotate(405.92404535277274)"><ellipse cx="0" cy="-1.3861730148742457" rx="0.795523503823493" ry="0.795523503823493"></ellipse><ellipse cx="0" cy="-1.3861730148742457" rx="0.3977617519117465" ry="0.3977617519117465"></ellipse></g></g><g id="eye2"><ellipse cx="17.1" cy="10.4" rx="2.7723460297484914" ry="2.7723460297484914"></ellipse><g transform="translate(17.1, 10.4) rotate(405.92404535277274)"><ellipse cx="0" cy="-1.3861730148742457" rx="0.795523503823493" ry="0.795523503823493"></ellipse><ellipse cx="0" cy="-1.3861730148742457" rx="0.3977617519117465" ry="0.3977617519117465"></ellipse></g></g><g id="mouth"><path d="
    M   8.995607367488423 17.315772479682764, 
    S   9,              16.4
        13,              16.5, 
    C   16,              17.1
        17.5,            16.5
        18.803757391171807   17.315772479682764"></path></g><g id="head"><ellipse cx="13.2" cy="12.2" rx="9.024431881369635" ry="9.127044656456551"></ellipse><g transform="translate(1.475568118630365, 0)"><path d="M.3 12.3c0 1.4 1 2.6 2.4 2.6m0-5.2a2.5 2.5 0 00-2.4 2.6"></path></g><g transform="translate(-1.475568118630365, 0)"><path d="M26.2 12.3c0 1.4-1.1 2.6-2.5 2.6m0-5.2c1.4 0 2.5 1.2 2.5 2.6"></path></g></g></g></g><g transform="translate(500, 11.11111111111111)"><g transform="scale(3.8610038610038613, 4.201680672268908) " fill="none" stroke-linecap="round" stroke-linejoin="round" stroke-width="1" paint-order="markers fill stroke"><g id="eye1"><ellipse cx="9.1" cy="10.4" rx="2.8667335704231505" ry="2.8667335704231505"></ellipse><g transform="translate(9.1, 10.4) rotate(140.07960786001456)"><ellipse cx="0" cy="-1.4333667852115752" rx="0.6841511947600434" ry="0.6841511947600434"></ellipse><ellipse cx="0" cy="-1.4333667852115752" rx="0.3420755973800217" ry="0.3420755973800217"></ellipse></g></g><g id="eye2"><ellipse cx="17.1" cy="10.4" rx="2.8667335704231505" ry="2.8667335704231505"></ellipse><g transform="translate(17.1, 10.4) rotate(140.07960786001456)"><ellipse cx="0" cy="-1.4333667852115752" rx="0.6841511947600434" ry="0.6841511947600434"></ellipse><ellipse cx="0" cy="-1.4333667852115752" rx="0.3420755973800217" ry="0.3420755973800217"></ellipse></g></g><g id="mouth"><path d="
    M   8.214831205168428 17.720306680406757, 
    S   9,              16.4
        13,              16.5, 
    C   16,              17.1
        17.5,            16.5
        18.732063357087362   17.720306680406757"></path></g><g id="head"><ellipse cx="13.2" cy="12.2" rx="10.070343911029195" ry="9.967399024769817"></ellipse><g transform="translate(0.4296560889708054, 0)"><path d="M.3 12.3c0 1.4 1 2.6 2.4 2.6m0-5.2a2.5 2.5 0 00-2.4 2.6"></path></g><g transform="translate(-0.4296560889708054, 0)"><path d="M26.2 12.3c0 1.4-1.1 2.6-2.5 2.6m0-5.2c1.4 0 2.5 1.2 2.5 2.6"></path></g></g></g></g><g transform="translate(500, 133.33333333333334)"><g transform="scale(3.8610038610038613, 4.201680672268908) " fill="none" stroke-linecap="round" stroke-linejoin="round" stroke-width="1" paint-order="markers fill stroke"><g id="eye1"><ellipse cx="9.1" cy="10.4" rx="2.9589028184336934" ry="2.9589028184336934"></ellipse><g transform="translate(9.1, 10.4) rotate(123.36636600105956)"><ellipse cx="0" cy="-1.4794514092168467" rx="0.7958246018115165" ry="0.7958246018115165"></ellipse><ellipse cx="0" cy="-1.4794514092168467" rx="0.39791230090575824" ry="0.39791230090575824"></ellipse></g></g><g id="eye2"><ellipse cx="17.1" cy="10.4" rx="2.9589028184336934" ry="2.9589028184336934"></ellipse><g transform="translate(17.1, 10.4) rotate(123.36636600105956)"><ellipse cx="0" cy="-1.4794514092168467" rx="0.7958246018115165" ry="0.7958246018115165"></ellipse><ellipse cx="0" cy="-1.4794514092168467" rx="0.39791230090575824" ry="0.39791230090575824"></ellipse></g></g><g id="mouth"><path d="
    M   8.834384862207502 17.68505386791583, 
    S   9,              16.4
        13,              16.5, 
    C   16,              17.1
        17.5,            16.5
        19.35905330738203   17.68505386791583"></path></g><g id="head"><ellipse cx="13.2" cy="12.2" rx="9.454381396950414" ry="9.812791266038605"></ellipse><g transform="translate(1.0456186030495864, 0)"><path d="M.3 12.3c0 1.4 1 2.6 2.4 2.6m0-5.2a2.5 2.5 0 00-2.4 2.6"></path></g><g transform="translate(-1.0456186030495864, 0)"><path d="M26.2 12.3c0 1.4-1.1 2.6-2.5 2.6m0-5.2c1.4 0 2.5 1.2 2.5 2.6"></path></g></g></g></g><g transform="translate(500, 255.55555555555557)"><g transform="scale(3.8610038610038613, 4.201680672268908) " fill="none" stroke-linecap="round" stroke-linejoin="round" stroke-width="1" paint-order="markers fill stroke"><g id="eye1"><ellipse cx="9.1" cy="10.4" rx="2.7470512656199686" ry="2.7470512656199686"></ellipse><g transform="translate(9.1, 10.4) rotate(96.95295746817393)"><ellipse cx="0" cy="-1.3735256328099843" rx="0.6299419586179488" ry="0.6299419586179488"></ellipse><ellipse cx="0" cy="-1.3735256328099843" rx="0.3149709793089744" ry="0.3149709793089744"></ellipse></g></g><g id="eye2"><ellipse cx="17.1" cy="10.4" rx="2.7470512656199686" ry="2.7470512656199686"></ellipse><g transform="translate(17.1, 10.4) rotate(96.95295746817393)"><ellipse cx="0" cy="-1.3735256328099843" rx="0.6299419586179488" ry="0.6299419586179488"></ellipse><ellipse cx="0" cy="-1.3735256328099843" rx="0.3149709793089744" ry="0.3149709793089744"></ellipse></g></g><g id="mouth"><path d="
    M   8.341335572817846 17.932185162699394, 
    S   9,              16.4
        13,              16.5, 
    C   16,              17.1
        17.5,            16.5
        18.598707909385027   17.932185162699394"></path></g><g id="head"><ellipse cx="13.2" cy="12.2" rx="10.456051978465496" ry="10.469887763412979"></ellipse><g transform="translate(0.04394802153450428, 0)"><path d="M.3 12.3c0 1.4 1 2.6 2.4 2.6m0-5.2a2.5 2.5 0 00-2.4 2.6"></path></g><g transform="translate(-0.04394802153450428, 0)"><path d="M26.2 12.3c0 1.4-1.1 2.6-2.5 2.6m0-5.2c1.4 0 2.5 1.2 2.5 2.6"></path></g></g></g></g><g transform="translate(500, 377.77777777777777)"><g transform="scale(3.8610038610038613, 4.201680672268908) " fill="none" stroke-linecap="round" stroke-linejoin="round" stroke-width="1" paint-order="markers fill stroke"><g id="eye1"><ellipse cx="9.1" cy="10.4" rx="3.225279966632579" ry="3.225279966632579"></ellipse><g transform="translate(9.1, 10.4) rotate(427.4794343971031)"><ellipse cx="0" cy="-1.6126399833162894" rx="0.7760303181151921" ry="0.7760303181151921"></ellipse><ellipse cx="0" cy="-1.6126399833162894" rx="0.38801515905759604" ry="0.38801515905759604"></ellipse></g></g><g id="eye2"><ellipse cx="17.1" cy="10.4" rx="3.225279966632579" ry="3.225279966632579"></ellipse><g transform="translate(17.1, 10.4) rotate(427.4794343971031)"><ellipse cx="0" cy="-1.6126399833162894" rx="0.7760303181151921" ry="0.7760303181151921"></ellipse><ellipse cx="0" cy="-1.6126399833162894" rx="0.38801515905759604" ry="0.38801515905759604"></ellipse></g></g><g id="mouth"><path d="
    M   8.068614512565684 18.144992345598503, 
    S   9,              16.4
        13,              16.5, 
    C   16,              17.1
        17.5,            16.5
        18.887853802737823   18.144992345598503"></path></g><g id="head"><ellipse cx="13.2" cy="12.2" rx="10.183692410098844" ry="10.451767875816955"></ellipse><g transform="translate(0.3163075899011556, 0)"><path d="M.3 12.3c0 1.4 1 2.6 2.4 2.6m0-5.2a2.5 2.5 0 00-2.4 2.6"></path></g><g transform="translate(-0.3163075899011556, 0)"><path d="M26.2 12.3c0 1.4-1.1 2.6-2.5 2.6m0-5.2c1.4 0 2.5 1.2 2.5 2.6"></path></g></g></g></g><g transform="translate(500, 500)"><g transform="scale(3.8610038610038613, 4.201680672268908) " fill="none" stroke-linecap="round" stroke-linejoin="round" stroke-width="1" paint-order="markers fill stroke"><g id="eye1"><ellipse cx="9.1" cy="10.4" rx="3.1239394919664827" ry="3.1239394919664827"></ellipse><g transform="translate(9.1, 10.4) rotate(406.43209618416466)"><ellipse cx="0" cy="-1.5619697459832413" rx="0.705278735408966" ry="0.705278735408966"></ellipse><ellipse cx="0" cy="-1.5619697459832413" rx="0.352639367704483" ry="0.352639367704483"></ellipse></g></g><g id="eye2"><ellipse cx="17.1" cy="10.4" rx="3.1239394919664827" ry="3.1239394919664827"></ellipse><g transform="translate(17.1, 10.4) rotate(406.43209618416466)"><ellipse cx="0" cy="-1.5619697459832413" rx="0.705278735408966" ry="0.705278735408966"></ellipse><ellipse cx="0" cy="-1.5619697459832413" rx="0.352639367704483" ry="0.352639367704483"></ellipse></g></g><g id="mouth"><path d="
    M   8.447117905804216 17.41005295324808, 
    S   9,              16.4
        13,              16.5, 
    C   16,              17.1
        17.5,            16.5
        18.750959876718508   17.41005295324808"></path></g><g id="head"><ellipse cx="13.2" cy="12.2" rx="9.007051014911715" ry="10.2959065770509"></ellipse><g transform="translate(1.4929489850882849, 0)"><path d="M.3 12.3c0 1.4 1 2.6 2.4 2.6m0-5.2a2.5 2.5 0 00-2.4 2.6"></path></g><g transform="translate(-1.4929489850882849, 0)"><path d="M26.2 12.3c0 1.4-1.1 2.6-2.5 2.6m0-5.2c1.4 0 2.5 1.2 2.5 2.6"></path></g></g></g></g><g transform="translate(500, 622.2222222222222)"><g transform="scale(3.8610038610038613, 4.201680672268908) " fill="none" stroke-linecap="round" stroke-linejoin="round" stroke-width="1" paint-order="markers fill stroke"><g id="eye1"><ellipse cx="9.1" cy="10.4" rx="2.613931286064428" ry="2.613931286064428"></ellipse><g transform="translate(9.1, 10.4) rotate(393.9062769884422)"><ellipse cx="0" cy="-1.306965643032214" rx="0.6165284798274623" ry="0.6165284798274623"></ellipse><ellipse cx="0" cy="-1.306965643032214" rx="0.30826423991373114" ry="0.30826423991373114"></ellipse></g></g><g id="eye2"><ellipse cx="17.1" cy="10.4" rx="2.613931286064428" ry="2.613931286064428"></ellipse><g transform="translate(17.1, 10.4) rotate(393.9062769884422)"><ellipse cx="0" cy="-1.306965643032214" rx="0.6165284798274623" ry="0.6165284798274623"></ellipse><ellipse cx="0" cy="-1.306965643032214" rx="0.30826423991373114" ry="0.30826423991373114"></ellipse></g></g><g id="mouth"><path d="
    M   8.806961425042315 17.38892258898157, 
    S   9,              16.4
        13,              16.5, 
    C   16,              17.1
        17.5,            16.5
        19.417347559761826   17.38892258898157"></path></g><g id="head"><ellipse cx="13.2" cy="12.2" rx="10.328802259713965" ry="9.909027527455237"></ellipse><g transform="translate(0.17119774028603452, 0)"><path d="M.3 12.3c0 1.4 1 2.6 2.4 2.6m0-5.2a2.5 2.5 0 00-2.4 2.6"></path></g><g transform="translate(-0.17119774028603452, 0)"><path d="M26.2 12.3c0 1.4-1.1 2.6-2.5 2.6m0-5.2c1.4 0 2.5 1.2 2.5 2.6"></path></g></g></g></g><g transform="translate(622.2222222222222, 11.11111111111111)"><g transform="scale(3.8610038610038613, 4.201680672268908) " fill="none" stroke-linecap="round" stroke-linejoin="round" stroke-width="1" paint-order="markers fill stroke"><g id="eye1"><ellipse cx="9.1" cy="10.4" rx="2.7800403095296784" ry="2.7800403095296784"></ellipse><g transform="translate(9.1, 10.4) rotate(158.8059435184577)"><ellipse cx="0" cy="-1.3900201547648392" rx="0.6414537845784711" ry="0.6414537845784711"></ellipse><ellipse cx="0" cy="-1.3900201547648392" rx="0.32072689228923557" ry="0.32072689228923557"></ellipse></g></g><g id="eye2"><ellipse cx="17.1" cy="10.4" rx="2.7800403095296784" ry="2.7800403095296784"></ellipse><g transform="translate(17.1, 10.4) rotate(158.8059435184577)"><ellipse cx="0" cy="-1.3900201547648392" rx="0.6414537845784711" ry="0.6414537845784711"></ellipse><ellipse cx="0" cy="-1.3900201547648392" rx="0.32072689228923557" ry="0.32072689228923557"></ellipse></g></g><g id="mouth"><path d="
    M   8.467060271941316 18.00748834864522, 
    S   9,              16.4
        13,              16.5, 
    C   16,              17.1
        17.5,            16.5
        19.25469678271724   18.00748834864522"></path></g><g id="head"><ellipse cx="13.2" cy="12.2" rx="9.98836756892625" ry="10.012090871115378"></ellipse><g transform="translate(0.5116324310737497, 0)"><path d="M.3 12.3c0 1.4 1 2.6 2.4 2.6m0-5.2a2.5 2.5 0 00-2.4 2.6"></path></g><g transform="translate(-0.5116324310737497, 0)"><path d="M26.2 12.3c0 1.4-1.1 2.6-2.5 2.6m0-5.2c1.4 0 2.5 1.2 2.5 2.6"></path></g></g></g></g><g transform="translate(622.2222222222222, 133.33333333333334)"><g transform="scale(3.8610038610038613, 4.201680672268908) " fill="none" stroke-linecap="round" stroke-linejoin="round" stroke-width="1" paint-order="markers fill stroke"><g id="eye1"><ellipse cx="9.1" cy="10.4" rx="2.5493136185312837" ry="2.5493136185312837"></ellipse><g transform="translate(9.1, 10.4) rotate(144.86580694308435)"><ellipse cx="0" cy="-1.2746568092656418" rx="0.7649368896404677" ry="0.7649368896404677"></ellipse><ellipse cx="0" cy="-1.2746568092656418" rx="0.38246844482023384" ry="0.38246844482023384"></ellipse></g></g><g id="eye2"><ellipse cx="17.1" cy="10.4" rx="2.5493136185312837" ry="2.5493136185312837"></ellipse><g transform="translate(17.1, 10.4) rotate(144.86580694308435)"><ellipse cx="0" cy="-1.2746568092656418" rx="0.7649368896404677" ry="0.7649368896404677"></ellipse><ellipse cx="0" cy="-1.2746568092656418" rx="0.38246844482023384" ry="0.38246844482023384"></ellipse></g></g><g id="mouth"><path d="
    M   8.75325946173685 17.24130645281316, 
    S   9,              16.4
        13,              16.5, 
    C   16,              17.1
        17.5,            16.5
        18.903343638884404   17.24130645281316"></path></g><g id="head"><ellipse cx="13.2" cy="12.2" rx="10.88812093266747" ry="9.826167176523978"></ellipse><g transform="translate(-0.3881209326674693, 0)"><path d="M.3 12.3c0 1.4 1 2.6 2.4 2.6m0-5.2a2.5 2.5 0 00-2.4 2.6"></path></g><g transform="translate(0.3881209326674693, 0)"><path d="M26.2 12.3c0 1.4-1.1 2.6-2.5 2.6m0-5.2c1.4 0 2.5 1.2 2.5 2.6"></path></g></g></g></g><g transform="translate(622.2222222222222, 255.55555555555557)"><g transform="scale(3.8610038610038613, 4.201680672268908) " fill="none" stroke-linecap="round" stroke-linejoin="round" stroke-width="1" paint-order="markers fill stroke"><g id="eye1"><ellipse cx="9.1" cy="10.4" rx="3.020727820962975" ry="3.020727820962975"></ellipse><g transform="translate(9.1, 10.4) rotate(104.74356283647074)"><ellipse cx="0" cy="-1.5103639104814874" rx="0.7991686087347256" ry="0.7991686087347256"></ellipse><ellipse cx="0" cy="-1.5103639104814874" rx="0.3995843043673628" ry="0.3995843043673628"></ellipse></g></g><g id="eye2"><ellipse cx="17.1" cy="10.4" rx="3.020727820962975" ry="3.020727820962975"></ellipse><g transform="translate(17.1, 10.4) rotate(104.74356283647074)"><ellipse cx="0" cy="-1.5103639104814874" rx="0.7991686087347256" ry="0.7991686087347256"></ellipse><ellipse cx="0" cy="-1.5103639104814874" rx="0.3995843043673628" ry="0.3995843043673628"></ellipse></g></g><g id="mouth"><path d="
    M   8.058615120043203 17.741744014323007, 
    S   9,              16.4
        13,              16.5, 
    C   16,              17.1
        17.5,            16.5
        18.642185405727755   17.741744014323007"></path></g><g id="head"><ellipse cx="13.2" cy="12.2" rx="10.791738419758646" ry="10.324449705191489"></ellipse><g transform="translate(-0.2917384197586461, 0)"><path d="M.3 12.3c0 1.4 1 2.6 2.4 2.6m0-5.2a2.5 2.5 0 00-2.4 2.6"></path></g><g transform="translate(0.2917384197586461, 0)"><path d="M26.2 12.3c0 1.4-1.1 2.6-2.5 2.6m0-5.2c1.4 0 2.5 1.2 2.5 2.6"></path></g></g></g></g><g transform="translate(622.2222222222222, 377.77777777777777)"><g transform="scale(3.8610038610038613, 4.201680672268908) " fill="none" stroke-linecap="round" stroke-linejoin="round" stroke-width="1" paint-order="markers fill stroke"><g id="eye1"><ellipse cx="9.1" cy="10.4" rx="2.87235996979007" ry="2.87235996979007"></ellipse><g transform="translate(9.1, 10.4) rotate(408.1798301198643)"><ellipse cx="0" cy="-1.436179984895035" rx="0.6662646922270652" ry="0.6662646922270652"></ellipse><ellipse cx="0" cy="-1.436179984895035" rx="0.3331323461135326" ry="0.3331323461135326"></ellipse></g></g><g id="eye2"><ellipse cx="17.1" cy="10.4" rx="2.87235996979007" ry="2.87235996979007"></ellipse><g transform="translate(17.1, 10.4) rotate(408.1798301198643)"><ellipse cx="0" cy="-1.436179984895035" rx="0.6662646922270652" ry="0.6662646922270652"></ellipse><ellipse cx="0" cy="-1.436179984895035" rx="0.3331323461135326" ry="0.3331323461135326"></ellipse></g></g><g id="mouth"><path d="
    M   8.721266637123659 17.725956479383797, 
    S   9,              16.4
        13,              16.5, 
    C   16,              17.1
        17.5,            16.5
        18.887790365741004   17.725956479383797"></path></g><g id="head"><ellipse cx="13.2" cy="12.2" rx="9.318305763639238" ry="10.039327138479035"></ellipse><g transform="translate(1.1816942363607623, 0)"><path d="M.3 12.3c0 1.4 1 2.6 2.4 2.6m0-5.2a2.5 2.5 0 00-2.4 2.6"></path></g><g transform="translate(-1.1816942363607623, 0)"><path d="M26.2 12.3c0 1.4-1.1 2.6-2.5 2.6m0-5.2c1.4 0 2.5 1.2 2.5 2.6"></path></g></g></g></g><g transform="translate(622.2222222222222, 500)"><g transform="scale(3.8610038610038613, 4.201680672268908) " fill="none" stroke-linecap="round" stroke-linejoin="round" stroke-width="1" paint-order="markers fill stroke"><g id="eye1"><ellipse cx="9.1" cy="10.4" rx="2.629694988033722" ry="2.629694988033722"></ellipse><g transform="translate(9.1, 10.4) rotate(385.97439396243135)"><ellipse cx="0" cy="-1.314847494016861" rx="0.685337195217649" ry="0.685337195217649"></ellipse><ellipse cx="0" cy="-1.314847494016861" rx="0.3426685976088245" ry="0.3426685976088245"></ellipse></g></g><g id="eye2"><ellipse cx="17.1" cy="10.4" rx="2.629694988033722" ry="2.629694988033722"></ellipse><g transform="translate(17.1, 10.4) rotate(385.97439396243135)"><ellipse cx="0" cy="-1.314847494016861" rx="0.685337195217649" ry="0.685337195217649"></ellipse><ellipse cx="0" cy="-1.314847494016861" rx="0.3426685976088245" ry="0.3426685976088245"></ellipse></g></g><g id="mouth"><path d="
    M   8.771158424719165 18.10822892484854, 
    S   9,              16.4
        13,              16.5, 
    C   16,              17.1
        17.5,            16.5
        18.570259241430044   18.10822892484854"></path></g><g id="head"><ellipse cx="13.2" cy="12.2" rx="9.494976627945006" ry="9.509152668804479"></ellipse><g transform="translate(1.0050233720549944, 0)"><path d="M.3 12.3c0 1.4 1 2.6 2.4 2.6m0-5.2a2.5 2.5 0 00-2.4 2.6"></path></g><g transform="translate(-1.0050233720549944, 0)"><path d="M26.2 12.3c0 1.4-1.1 2.6-2.5 2.6m0-5.2c1.4 0 2.5 1.2 2.5 2.6"></path></g></g></g></g><g transform="translate(622.2222222222222, 622.2222222222222)"><g transform="scale(3.8610038610038613, 4.201680672268908) " fill="none" stroke-linecap="round" stroke-linejoin="round" stroke-width="1" paint-order="markers fill stroke"><g id="eye1"><ellipse cx="9.1" cy="10.4" rx="3.2553897115602135" ry="3.2553897115602135"></ellipse><g transform="translate(9.1, 10.4) rotate(377.30052719194504)"><ellipse cx="0" cy="-1.6276948557801068" rx="0.6062040145965232" ry="0.6062040145965232"></ellipse><ellipse cx="0" cy="-1.6276948557801068" rx="0.3031020072982616" ry="0.3031020072982616"></ellipse></g></g><g id="eye2"><ellipse cx="17.1" cy="10.4" rx="3.2553897115602135" ry="3.2553897115602135"></ellipse><g transform="translate(17.1, 10.4) rotate(377.30052719194504)"><ellipse cx="0" cy="-1.6276948557801068" rx="0.6062040145965232" ry="0.6062040145965232"></ellipse><ellipse cx="0" cy="-1.6276948557801068" rx="0.3031020072982616" ry="0.3031020072982616"></ellipse></g></g><g id="mouth"><path d="
    M   8.036671764020651 17.79517795170686, 
    S   9,              16.4
        13,              16.5, 
    C   16,              17.1
        17.5,            16.5
        18.63681384279463   17.79517795170686"></path></g><g id="head"><ellipse cx="13.2" cy="12.2" rx="9.150351246524234" ry="9.185974600726095"></ellipse><g transform="translate(1.3496487534757655, 0)"><path d="M.3 12.3c0 1.4 1 2.6 2.4 2.6m0-5.2a2.5 2.5 0 00-2.4 2.6"></path></g><g transform="translate(-1.3496487534757655, 0)"><path d="M26.2 12.3c0 1.4-1.1 2.6-2.5 2.6m0-5.2c1.4 0 2.5 1.2 2.5 2.6"></path></g></g></g></g><g transform="translate(744.4444444444445, 11.11111111111111)"><g transform="scale(3.8610038610038613, 4.201680672268908) " fill="none" stroke-linecap="round" stroke-linejoin="round" stroke-width="1" paint-order="markers fill stroke"><g id="eye1"><ellipse cx="9.1" cy="10.4" rx="3.468835578624883" ry="3.468835578624883"></ellipse><g transform="translate(9.1, 10.4) rotate(183.50353164478446)"><ellipse cx="0" cy="-1.7344177893124415" rx="0.7826915778614939" ry="0.7826915778614939"></ellipse><ellipse cx="0" cy="-1.7344177893124415" rx="0.39134578893074695" ry="0.39134578893074695"></ellipse></g></g><g id="eye2"><ellipse cx="17.1" cy="10.4" rx="3.468835578624883" ry="3.468835578624883"></ellipse><g transform="translate(17.1, 10.4) rotate(183.50353164478446)"><ellipse cx="0" cy="-1.7344177893124415" rx="0.7826915778614939" ry="0.7826915778614939"></ellipse><ellipse cx="0" cy="-1.7344177893124415" rx="0.39134578893074695" ry="0.39134578893074695"></ellipse></g></g><g id="mouth"><path d="
    M   8.916375520896732 17.4288398652934, 
    S   9,              16.4
        13,              16.5, 
    C   16,              17.1
        17.5,            16.5
        18.560030683578436   17.4288398652934"></path></g><g id="head"><ellipse cx="13.2" cy="12.2" rx="10.62996977707068" ry="9.474385028479492"></ellipse><g transform="translate(-0.1299697770706807, 0)"><path d="M.3 12.3c0 1.4 1 2.6 2.4 2.6m0-5.2a2.5 2.5 0 00-2.4 2.6"></path></g><g transform="translate(0.1299697770706807, 0)"><path d="M26.2 12.3c0 1.4-1.1 2.6-2.5 2.6m0-5.2c1.4 0 2.5 1.2 2.5 2.6"></path></g></g></g></g><g transform="translate(744.4444444444445, 133.33333333333334)"><g transform="scale(3.8610038610038613, 4.201680672268908) " fill="none" stroke-linecap="round" stroke-linejoin="round" stroke-width="1" paint-order="markers fill stroke"><g id="eye1"><ellipse cx="9.1" cy="10.4" rx="3.2205712802343553" ry="3.2205712802343553"></ellipse><g transform="translate(9.1, 10.4) rotate(186.3401917459099)"><ellipse cx="0" cy="-1.6102856401171777" rx="0.7729290205529195" ry="0.7729290205529195"></ellipse><ellipse cx="0" cy="-1.6102856401171777" rx="0.3864645102764597" ry="0.3864645102764597"></ellipse></g></g><g id="eye2"><ellipse cx="17.1" cy="10.4" rx="3.2205712802343553" ry="3.2205712802343553"></ellipse><g transform="translate(17.1, 10.4) rotate(186.3401917459099)"><ellipse cx="0" cy="-1.6102856401171777" rx="0.7729290205529195" ry="0.7729290205529195"></ellipse><ellipse cx="0" cy="-1.6102856401171777" rx="0.3864645102764597" ry="0.3864645102764597"></ellipse></g></g><g id="mouth"><path d="
    M   8.5289163862289 17.53847306573344, 
    S   9,              16.4
        13,              16.5, 
    C   16,              17.1
        17.5,            16.5
        18.748578778649126   17.53847306573344"></path></g><g id="head"><ellipse cx="13.2" cy="12.2" rx="10.388693292562445" ry="9.095277161031598"></ellipse><g transform="translate(0.11130670743755466, 0)"><path d="M.3 12.3c0 1.4 1 2.6 2.4 2.6m0-5.2a2.5 2.5 0 00-2.4 2.6"></path></g><g transform="translate(-0.11130670743755466, 0)"><path d="M26.2 12.3c0 1.4-1.1 2.6-2.5 2.6m0-5.2c1.4 0 2.5 1.2 2.5 2.6"></path></g></g></g></g><g transform="translate(744.4444444444445, 255.55555555555557)"><g transform="scale(3.8610038610038613, 4.201680672268908) " fill="none" stroke-linecap="round" stroke-linejoin="round" stroke-width="1" paint-order="markers fill stroke"><g id="eye1"><ellipse cx="9.1" cy="10.4" rx="2.7420111630923314" ry="2.7420111630923314"></ellipse><g transform="translate(9.1, 10.4) rotate(210.96375653207343)"><ellipse cx="0" cy="0" rx="0.7437175824337661" ry="0.7437175824337661"></ellipse><ellipse cx="0" cy="0" rx="0.37185879121688303" ry="0.37185879121688303"></ellipse></g></g><g id="eye2"><ellipse cx="17.1" cy="10.4" rx="2.7420111630923314" ry="2.7420111630923314"></ellipse><g transform="translate(17.1, 10.4) rotate(210.96375653207343)"><ellipse cx="0" cy="0" rx="0.7437175824337661" ry="0.7437175824337661"></ellipse><ellipse cx="0" cy="0" rx="0.37185879121688303" ry="0.37185879121688303"></ellipse></g></g><g id="mouth"><path d="
    M   8.563094654029069 15.566874681202874, 
    S   9,              16.4
        13,              16.5, 
    C   16,              17.1
        17.5,            16.5
        19.20579037957486   15.475646927641629"></path></g><g id="head"><ellipse cx="13.2" cy="12.2" rx="9.076310757336064" ry="10.563955178593863"></ellipse><g transform="translate(1.4236892426639365, 0)"><path d="M.3 12.3c0 1.4 1 2.6 2.4 2.6m0-5.2a2.5 2.5 0 00-2.4 2.6"></path></g><g transform="translate(-1.4236892426639365, 0)"><path d="M26.2 12.3c0 1.4-1.1 2.6-2.5 2.6m0-5.2c1.4 0 2.5 1.2 2.5 2.6"></path></g></g></g></g><g transform="translate(744.4444444444445, 377.77777777777777)"><g transform="scale(3.8610038610038613, 4.201680672268908) " fill="none" stroke-linecap="round" stroke-linejoin="round" stroke-width="1" paint-order="markers fill stroke"><g id="eye1"><ellipse cx="9.1" cy="10.4" rx="2.898144673473947" ry="2.898144673473947"></ellipse><g transform="translate(9.1, 10.4) rotate(349.9920201985587)"><ellipse cx="0" cy="-1.4490723367369736" rx="0.7054722462304991" ry="0.7054722462304991"></ellipse><ellipse cx="0" cy="-1.4490723367369736" rx="0.35273612311524954" ry="0.35273612311524954"></ellipse></g></g><g id="eye2"><ellipse cx="17.1" cy="10.4" rx="2.898144673473947" ry="2.898144673473947"></ellipse><g transform="translate(17.1, 10.4) rotate(349.9920201985587)"><ellipse cx="0" cy="-1.4490723367369736" rx="0.7054722462304991" ry="0.7054722462304991"></ellipse><ellipse cx="0" cy="-1.4490723367369736" rx="0.35273612311524954" ry="0.35273612311524954"></ellipse></g></g><g id="mouth"><path d="
    M   8.995065163656376 17.533237620766577, 
    S   9,              16.4
        13,              16.5, 
    C   16,              17.1
        17.5,            16.5
        19.18588435854658   17.533237620766577"></path></g><g id="head"><ellipse cx="13.2" cy="12.2" rx="9.059214090440165" ry="9.863691551699148"></ellipse><g transform="translate(1.4407859095598354, 0)"><path d="M.3 12.3c0 1.4 1 2.6 2.4 2.6m0-5.2a2.5 2.5 0 00-2.4 2.6"></path></g><g transform="translate(-1.4407859095598354, 0)"><path d="M26.2 12.3c0 1.4-1.1 2.6-2.5 2.6m0-5.2c1.4 0 2.5 1.2 2.5 2.6"></path></g></g></g></g><g transform="translate(744.4444444444445, 500)"><g transform="scale(3.8610038610038613, 4.201680672268908) " fill="none" stroke-linecap="round" stroke-linejoin="round" stroke-width="1" paint-order="markers fill stroke"><g id="eye1"><ellipse cx="9.1" cy="10.4" rx="3.2875766802741015" ry="3.2875766802741015"></ellipse><g transform="translate(9.1, 10.4) rotate(355.6012946450045)"><ellipse cx="0" cy="-1.6437883401370508" rx="0.6935093628750608" ry="0.6935093628750608"></ellipse><ellipse cx="0" cy="-1.6437883401370508" rx="0.3467546814375304" ry="0.3467546814375304"></ellipse></g></g><g id="eye2"><ellipse cx="17.1" cy="10.4" rx="3.2875766802741015" ry="3.2875766802741015"></ellipse><g transform="translate(17.1, 10.4) rotate(355.6012946450045)"><ellipse cx="0" cy="-1.6437883401370508" rx="0.6935093628750608" ry="0.6935093628750608"></ellipse><ellipse cx="0" cy="-1.6437883401370508" rx="0.3467546814375304" ry="0.3467546814375304"></ellipse></g></g><g id="mouth"><path d="
    M   8.556932120635228 17.975777544295383, 
    S   9,              16.4
        13,              16.5, 
    C   16,              17.1
        17.5,            16.5
        19.206803558851725   17.975777544295383"></path></g><g id="head"><ellipse cx="13.2" cy="12.2" rx="9.612096772030627" ry="10.990916914533207"></ellipse><g transform="translate(0.8879032279693728, 0)"><path d="M.3 12.3c0 1.4 1 2.6 2.4 2.6m0-5.2a2.5 2.5 0 00-2.4 2.6"></path></g><g transform="translate(-0.8879032279693728, 0)"><path d="M26.2 12.3c0 1.4-1.1 2.6-2.5 2.6m0-5.2c1.4 0 2.5 1.2 2.5 2.6"></path></g></g></g></g><g transform="translate(744.4444444444445, 622.2222222222222)"><g transform="scale(3.8610038610038613, 4.201680672268908) " fill="none" stroke-linecap="round" stroke-linejoin="round" stroke-width="1" paint-order="markers fill stroke"><g id="eye1"><ellipse cx="9.1" cy="10.4" rx="2.605887493580864" ry="2.605887493580864"></ellipse><g transform="translate(9.1, 10.4) rotate(357.18444331578877)"><ellipse cx="0" cy="-1.302943746790432" rx="0.7894900301948957" ry="0.7894900301948957"></ellipse><ellipse cx="0" cy="-1.302943746790432" rx="0.39474501509744786" ry="0.39474501509744786"></ellipse></g></g><g id="eye2"><ellipse cx="17.1" cy="10.4" rx="2.605887493580864" ry="2.605887493580864"></ellipse><g transform="translate(17.1, 10.4) rotate(357.18444331578877)"><ellipse cx="0" cy="-1.302943746790432" rx="0.7894900301948957" ry="0.7894900301948957"></ellipse><ellipse cx="0" cy="-1.302943746790432" rx="0.39474501509744786" ry="0.39474501509744786"></ellipse></g></g><g id="mouth"><path d="
    M   8.418433594930494 17.95686926949357, 
    S   9,              16.4
        13,              16.5, 
    C   16,              17.1
        17.5,            16.5
        18.71750219047355   17.95686926949357"></path></g><g id="head"><ellipse cx="13.2" cy="12.2" rx="9.474864681598088" ry="9.38443636842238"></ellipse><g transform="translate(1.0251353184019116, 0)"><path d="M.3 12.3c0 1.4 1 2.6 2.4 2.6m0-5.2a2.5 2.5 0 00-2.4 2.6"></path></g><g transform="translate(-1.0251353184019116, 0)"><path d="M26.2 12.3c0 1.4-1.1 2.6-2.5 2.6m0-5.2c1.4 0 2.5 1.2 2.5 2.6"></path></g></g></g></g><g transform="translate(866.6666666666667, 11.11111111111111)"><g transform="scale(3.8610038610038613, 4.201680672268908) " fill="none" stroke-linecap="round" stroke-linejoin="round" stroke-width="1" paint-order="markers fill stroke"><g id="eye1"><ellipse cx="9.1" cy="10.4" rx="3.16956901064005" ry="3.16956901064005"></ellipse><g transform="translate(9.1, 10.4) rotate(207.03086025984297)"><ellipse cx="0" cy="-1.584784505320025" rx="0.6901791737695085" ry="0.6901791737695085"></ellipse><ellipse cx="0" cy="-1.584784505320025" rx="0.3450895868847543" ry="0.3450895868847543"></ellipse></g></g><g id="eye2"><ellipse cx="17.1" cy="10.4" rx="3.16956901064005" ry="3.16956901064005"></ellipse><g transform="translate(17.1, 10.4) rotate(207.03086025984297)"><ellipse cx="0" cy="-1.584784505320025" rx="0.6901791737695085" ry="0.6901791737695085"></ellipse><ellipse cx="0" cy="-1.584784505320025" rx="0.3450895868847543" ry="0.3450895868847543"></ellipse></g></g><g id="mouth"><path d="
    M   8.936388621455627 17.9483495869834, 
    S   9,              16.4
        13,              16.5, 
    C   16,              17.1
        17.5,            16.5
        19.200771556819912   17.9483495869834"></path></g><g id="head"><ellipse cx="13.2" cy="12.2" rx="10.985499894368429" ry="9.040413745115822"></ellipse><g transform="translate(-0.485499894368429, 0)"><path d="M.3 12.3c0 1.4 1 2.6 2.4 2.6m0-5.2a2.5 2.5 0 00-2.4 2.6"></path></g><g transform="translate(0.485499894368429, 0)"><path d="M26.2 12.3c0 1.4-1.1 2.6-2.5 2.6m0-5.2c1.4 0 2.5 1.2 2.5 2.6"></path></g></g></g></g><g transform="translate(866.6666666666667, 133.33333333333334)"><g transform="scale(3.8610038610038613, 4.201680672268908) " fill="none" stroke-linecap="round" stroke-linejoin="round" stroke-width="1" paint-order="markers fill stroke"><g id="eye1"><ellipse cx="9.1" cy="10.4" rx="3.4572722082624034" ry="3.4572722082624034"></ellipse><g transform="translate(9.1, 10.4) rotate(222.79740183823418)"><ellipse cx="0" cy="-1.7286361041312017" rx="0.6250428883847295" ry="0.6250428883847295"></ellipse><ellipse cx="0" cy="-1.7286361041312017" rx="0.3125214441923648" ry="0.3125214441923648"></ellipse></g></g><g id="eye2"><ellipse cx="17.1" cy="10.4" rx="3.4572722082624034" ry="3.4572722082624034"></ellipse><g transform="translate(17.1, 10.4) rotate(222.79740183823418)"><ellipse cx="0" cy="-1.7286361041312017" rx="0.6250428883847295" ry="0.6250428883847295"></ellipse><ellipse cx="0" cy="-1.7286361041312017" rx="0.3125214441923648" ry="0.3125214441923648"></ellipse></g></g><g id="mouth"><path d="
    M   8.32732179235013 17.999624126924303, 
    S   9,              16.4
        13,              16.5, 
    C   16,              17.1
        17.5,            16.5
        19.41383081235092   17.999624126924303"></path></g><g id="head"><ellipse cx="13.2" cy="12.2" rx="10.25870262469299" ry="10.549895829934421"></ellipse><g transform="translate(0.2412973753070098, 0)"><path d="M.3 12.3c0 1.4 1 2.6 2.4 2.6m0-5.2a2.5 2.5 0 00-2.4 2.6"></path></g><g transform="translate(-0.2412973753070098, 0)"><path d="M26.2 12.3c0 1.4-1.1 2.6-2.5 2.6m0-5.2c1.4 0 2.5 1.2 2.5 2.6"></path></g></g></g></g><g transform="translate(866.6666666666667, 255.55555555555557)"><g transform="scale(3.8610038610038613, 4.201680672268908) " fill="none" stroke-linecap="round" stroke-linejoin="round" stroke-width="1" paint-order="markers fill stroke"><g id="eye1"><ellipse cx="9.1" cy="10.4" rx="3.023245374739841" ry="3.023245374739841"></ellipse><g transform="translate(9.1, 10.4) rotate(258.69006752597977)"><ellipse cx="0" cy="-1.5116226873699206" rx="0.6093357015542128" ry="0.6093357015542128"></ellipse><ellipse cx="0" cy="-1.5116226873699206" rx="0.3046678507771064" ry="0.3046678507771064"></ellipse></g></g><g id="eye2"><ellipse cx="17.1" cy="10.4" rx="3.023245374739841" ry="3.023245374739841"></ellipse><g transform="translate(17.1, 10.4) rotate(258.69006752597977)"><ellipse cx="0" cy="-1.5116226873699206" rx="0.6093357015542128" ry="0.6093357015542128"></ellipse><ellipse cx="0" cy="-1.5116226873699206" rx="0.3046678507771064" ry="0.3046678507771064"></ellipse></g></g><g id="mouth"><path d="
    M   8.189714004203012 17.483031249203574, 
    S   9,              16.4
        13,              16.5, 
    C   16,              17.1
        17.5,            16.5
        18.84080579125035   17.483031249203574"></path></g><g id="head"><ellipse cx="13.2" cy="12.2" rx="9.142077829862217" ry="9.589240628006168"></ellipse><g transform="translate(1.3579221701377833, 0)"><path d="M.3 12.3c0 1.4 1 2.6 2.4 2.6m0-5.2a2.5 2.5 0 00-2.4 2.6"></path></g><g transform="translate(-1.3579221701377833, 0)"><path d="M26.2 12.3c0 1.4-1.1 2.6-2.5 2.6m0-5.2c1.4 0 2.5 1.2 2.5 2.6"></path></g></g></g></g><g transform="translate(866.6666666666667, 377.77777777777777)"><g transform="scale(3.8610038610038613, 4.201680672268908) " fill="none" stroke-linecap="round" stroke-linejoin="round" stroke-width="1" paint-order="markers fill stroke"><g id="eye1"><ellipse cx="9.1" cy="10.4" rx="2.881329005031514" ry="2.881329005031514"></ellipse><g transform="translate(9.1, 10.4) rotate(304.2157021324374)"><ellipse cx="0" cy="-1.440664502515757" rx="0.7656091941600475" ry="0.7656091941600475"></ellipse><ellipse cx="0" cy="-1.440664502515757" rx="0.38280459708002373" ry="0.38280459708002373"></ellipse></g></g><g id="eye2"><ellipse cx="17.1" cy="10.4" rx="2.881329005031514" ry="2.881329005031514"></ellipse><g transform="translate(17.1, 10.4) rotate(304.2157021324374)"><ellipse cx="0" cy="-1.440664502515757" rx="0.7656091941600475" ry="0.7656091941600475"></ellipse><ellipse cx="0" cy="-1.440664502515757" rx="0.38280459708002373" ry="0.38280459708002373"></ellipse></g></g><g id="mouth"><path d="
    M   8.609968513409756 17.794726169494066, 
    S   9,              16.4
        13,              16.5, 
    C   16,              17.1
        17.5,            16.5
        18.790393865809836   17.794726169494066"></path></g><g id="head"><ellipse cx="13.2" cy="12.2" rx="10.847131816708906" ry="10.375968113118294"></ellipse><g transform="translate(-0.3471318167089059, 0)"><path d="M.3 12.3c0 1.4 1 2.6 2.4 2.6m0-5.2a2.5 2.5 0 00-2.4 2.6"></path></g><g transform="translate(0.3471318167089059, 0)"><path d="M26.2 12.3c0 1.4-1.1 2.6-2.5 2.6m0-5.2c1.4 0 2.5 1.2 2.5 2.6"></path></g></g></g></g><g transform="translate(866.6666666666667, 500)"><g transform="scale(3.8610038610038613, 4.201680672268908) " fill="none" stroke-linecap="round" stroke-linejoin="round" stroke-width="1" paint-order="markers fill stroke"><g id="eye1"><ellipse cx="9.1" cy="10.4" rx="3.241118521266222" ry="3.241118521266222"></ellipse><g transform="translate(9.1, 10.4) rotate(327.3390872783262)"><ellipse cx="0" cy="-1.620559260633111" rx="0.6307154100976827" ry="0.6307154100976827"></ellipse><ellipse cx="0" cy="-1.620559260633111" rx="0.31535770504884136" ry="0.31535770504884136"></ellipse></g></g><g id="eye2"><ellipse cx="17.1" cy="10.4" rx="3.241118521266222" ry="3.241118521266222"></ellipse><g transform="translate(17.1, 10.4) rotate(327.3390872783262)"><ellipse cx="0" cy="-1.620559260633111" rx="0.6307154100976827" ry="0.6307154100976827"></ellipse><ellipse cx="0" cy="-1.620559260633111" rx="0.31535770504884136" ry="0.31535770504884136"></ellipse></g></g><g id="mouth"><path d="
    M   8.77378651552819 18.01899494393473, 
    S   9,              16.4
        13,              16.5, 
    C   16,              17.1
        17.5,            16.5
        19.310106616868033   18.01899494393473"></path></g><g id="head"><ellipse cx="13.2" cy="12.2" rx="10.198690894554085" ry="10.237172395360433"></ellipse><g transform="translate(0.30130910544591494, 0)"><path d="M.3 12.3c0 1.4 1 2.6 2.4 2.6m0-5.2a2.5 2.5 0 00-2.4 2.6"></path></g><g transform="translate(-0.30130910544591494, 0)"><path d="M26.2 12.3c0 1.4-1.1 2.6-2.5 2.6m0-5.2c1.4 0 2.5 1.2 2.5 2.6"></path></g></g></g></g><g transform="translate(866.6666666666667, 622.2222222222222)"><g transform="scale(3.8610038610038613, 4.201680672268908) " fill="none" stroke-linecap="round" stroke-linejoin="round" stroke-width="1" paint-order="markers fill stroke"><g id="eye1"><ellipse cx="9.1" cy="10.4" rx="3.2685476761883363" ry="3.2685476761883363"></ellipse><g transform="translate(9.1, 10.4) rotate(337.71441235316723)"><ellipse cx="0" cy="-1.6342738380941682" rx="0.7609920544667693" ry="0.7609920544667693"></ellipse><ellipse cx="0" cy="-1.6342738380941682" rx="0.38049602723338466" ry="0.38049602723338466"></ellipse></g></g><g id="eye2"><ellipse cx="17.1" cy="10.4" rx="3.2685476761883363" ry="3.2685476761883363"></ellipse><g transform="translate(17.1, 10.4) rotate(337.71441235316723)"><ellipse cx="0" cy="-1.6342738380941682" rx="0.7609920544667693" ry="0.7609920544667693"></ellipse><ellipse cx="0" cy="-1.6342738380941682" rx="0.38049602723338466" ry="0.38049602723338466"></ellipse></g></g><g id="mouth"><path d="
    M   8.396351198813052 17.20853428205156, 
    S   9,              16.4
        13,              16.5, 
    C   16,              17.1
        17.5,            16.5
        19.008778440488573   17.20853428205156"></path></g><g id="head"><ellipse cx="13.2" cy="12.2" rx="9.838639588993454" ry="10.691387531545315"></ellipse><g transform="translate(0.6613604110065463, 0)"><path d="M.3 12.3c0 1.4 1 2.6 2.4 2.6m0-5.2a2.5 2.5 0 00-2.4 2.6"></path></g><g transform="translate(-0.6613604110065463, 0)"><path d="M26.2 12.3c0 1.4-1.1 2.6-2.5 2.6m0-5.2c1.4 0 2.5 1.2 2.5 2.6"></path></g></g></g></g><g transform="translate(988.8888888888889, 11.11111111111111)"><g transform="scale(3.8610038610038613, 4.201680672268908) " fill="none" stroke-linecap="round" stroke-linejoin="round" stroke-width="1" paint-order="markers fill stroke"><g id="eye1"><ellipse cx="9.1" cy="10.4" rx="3.138109316873908" ry="3.138109316873908"></ellipse><g transform="translate(9.1, 10.4) rotate(223.80651057601796)"><ellipse cx="0" cy="-1.569054658436954" rx="0.7970535129260468" ry="0.7970535129260468"></ellipse><ellipse cx="0" cy="-1.569054658436954" rx="0.3985267564630234" ry="0.3985267564630234"></ellipse></g></g><g id="eye2"><ellipse cx="17.1" cy="10.4" rx="3.138109316873908" ry="3.138109316873908"></ellipse><g transform="translate(17.1, 10.4) rotate(223.80651057601796)"><ellipse cx="0" cy="-1.569054658436954" rx="0.7970535129260468" ry="0.7970535129260468"></ellipse><ellipse cx="0" cy="-1.569054658436954" rx="0.3985267564630234" ry="0.3985267564630234"></ellipse></g></g><g id="mouth"><path d="
    M   8.01358002564954 17.62921159556949, 
    S   9,              16.4
        13,              16.5, 
    C   16,              17.1
        17.5,            16.5
        19.063111066208933   17.62921159556949"></path></g><g id="head"><ellipse cx="13.2" cy="12.2" rx="9.483436199371853" ry="10.481356021272182"></ellipse><g transform="translate(1.0165638006281466, 0)"><path d="M.3 12.3c0 1.4 1 2.6 2.4 2.6m0-5.2a2.5 2.5 0 00-2.4 2.6"></path></g><g transform="translate(-1.0165638006281466, 0)"><path d="M26.2 12.3c0 1.4-1.1 2.6-2.5 2.6m0-5.2c1.4 0 2.5 1.2 2.5 2.6"></path></g></g></g></g><g transform="translate(988.8888888888889, 133.33333333333334)"><g transform="scale(3.8610038610038613, 4.201680672268908) " fill="none" stroke-linecap="round" stroke-linejoin="round" stroke-width="1" paint-order="markers fill stroke"><g id="eye1"><ellipse cx="9.1" cy="10.4" rx="2.8719234724466354" ry="2.8719234724466354"></ellipse><g transform="translate(9.1, 10.4) rotate(240.12400730831055)"><ellipse cx="0" cy="-1.4359617362233177" rx="0.6262703305964761" ry="0.6262703305964761"></ellipse><ellipse cx="0" cy="-1.4359617362233177" rx="0.31313516529823804" ry="0.31313516529823804"></ellipse></g></g><g id="eye2"><ellipse cx="17.1" cy="10.4" rx="2.8719234724466354" ry="2.8719234724466354"></ellipse><g transform="translate(17.1, 10.4) rotate(240.12400730831055)"><ellipse cx="0" cy="-1.4359617362233177" rx="0.6262703305964761" ry="0.6262703305964761"></ellipse><ellipse cx="0" cy="-1.4359617362233177" rx="0.31313516529823804" ry="0.31313516529823804"></ellipse></g></g><g id="mouth"><path d="
    M   8.127210840565203 17.801332752756004, 
    S   9,              16.4
        13,              16.5, 
    C   16,              17.1
        17.5,            16.5
        18.660151191812286   17.801332752756004"></path></g><g id="head"><ellipse cx="13.2" cy="12.2" rx="10.965155010214163" ry="9.038479297214487"></ellipse><g transform="translate(-0.46515501021416306, 0)"><path d="M.3 12.3c0 1.4 1 2.6 2.4 2.6m0-5.2a2.5 2.5 0 00-2.4 2.6"></path></g><g transform="translate(0.46515501021416306, 0)"><path d="M26.2 12.3c0 1.4-1.1 2.6-2.5 2.6m0-5.2c1.4 0 2.5 1.2 2.5 2.6"></path></g></g></g></g><g transform="translate(988.8888888888889, 255.55555555555557)"><g transform="scale(3.8610038610038613, 4.201680672268908) " fill="none" stroke-linecap="round" stroke-linejoin="round" stroke-width="1" paint-order="markers fill stroke"><g id="eye1"><ellipse cx="9.1" cy="10.4" rx="2.509834997341973" ry="2.509834997341973"></ellipse><g transform="translate(9.1, 10.4) rotate(263.9275435927923)"><ellipse cx="0" cy="-1.2549174986709866" rx="0.7538597587463879" ry="0.7538597587463879"></ellipse><ellipse cx="0" cy="-1.2549174986709866" rx="0.37692987937319394" ry="0.37692987937319394"></ellipse></g></g><g id="eye2"><ellipse cx="17.1" cy="10.4" rx="2.509834997341973" ry="2.509834997341973"></ellipse><g transform="translate(17.1, 10.4) rotate(263.9275435927923)"><ellipse cx="0" cy="-1.2549174986709866" rx="0.7538597587463879" ry="0.7538597587463879"></ellipse><ellipse cx="0" cy="-1.2549174986709866" rx="0.37692987937319394" ry="0.37692987937319394"></ellipse></g></g><g id="mouth"><path d="
    M   8.313985184196836 17.850698376388056, 
    S   9,              16.4
        13,              16.5, 
    C   16,              17.1
        17.5,            16.5
        19.288734346219794   17.850698376388056"></path></g><g id="head"><ellipse cx="13.2" cy="12.2" rx="10.228530253474082" ry="9.858633090127599"></ellipse><g transform="translate(0.27146974652591815, 0)"><path d="M.3 12.3c0 1.4 1 2.6 2.4 2.6m0-5.2a2.5 2.5 0 00-2.4 2.6"></path></g><g transform="translate(-0.27146974652591815, 0)"><path d="M26.2 12.3c0 1.4-1.1 2.6-2.5 2.6m0-5.2c1.4 0 2.5 1.2 2.5 2.6"></path></g></g></g></g><g transform="translate(988.8888888888889, 377.77777777777777)"><g transform="scale(3.8610038610038613, 4.201680672268908) " fill="none" stroke-linecap="round" stroke-linejoin="round" stroke-width="1" paint-order="markers fill stroke"><g id="eye1"><ellipse cx="9.1" cy="10.4" rx="3.3110585878641876" ry="3.3110585878641876"></ellipse><g transform="translate(9.1, 10.4) rotate(289.8851651138554)"><ellipse cx="0" cy="-1.6555292939320938" rx="0.6523955827552095" ry="0.6523955827552095"></ellipse><ellipse cx="0" cy="-1.6555292939320938" rx="0.32619779137760474" ry="0.32619779137760474"></ellipse></g></g><g id="eye2"><ellipse cx="17.1" cy="10.4" rx="3.3110585878641876" ry="3.3110585878641876"></ellipse><g transform="translate(17.1, 10.4) rotate(289.8851651138554)"><ellipse cx="0" cy="-1.6555292939320938" rx="0.6523955827552095" ry="0.6523955827552095"></ellipse><ellipse cx="0" cy="-1.6555292939320938" rx="0.32619779137760474" ry="0.32619779137760474"></ellipse></g></g><g id="mouth"><path d="
    M   8.28184747945679 17.27210443921172, 
    S   9,              16.4
        13,              16.5, 
    C   16,              17.1
        17.5,            16.5
        18.944335242699925   17.27210443921172"></path></g><g id="head"><ellipse cx="13.2" cy="12.2" rx="10.93017518124102" ry="10.456725133970917"></ellipse><g transform="translate(-0.4301751812410206, 0)"><path d="M.3 12.3c0 1.4 1 2.6 2.4 2.6m0-5.2a2.5 2.5 0 00-2.4 2.6"></path></g><g transform="translate(0.4301751812410206, 0)"><path d="M26.2 12.3c0 1.4-1.1 2.6-2.5 2.6m0-5.2c1.4 0 2.5 1.2 2.5 2.6"></path></g></g></g></g><g transform="translate(988.8888888888889, 500)"><g transform="scale(3.8610038610038613, 4.201680672268908) " fill="none" stroke-linecap="round" stroke-linejoin="round" stroke-width="1" paint-order="markers fill stroke"><g id="eye1"><ellipse cx="9.1" cy="10.4" rx="2.8347877035153837" ry="2.8347877035153837"></ellipse><g transform="translate(9.1, 10.4) rotate(309.6854543300552)"><ellipse cx="0" cy="-1.4173938517576918" rx="0.6697075581526987" ry="0.6697075581526987"></ellipse><ellipse cx="0" cy="-1.4173938517576918" rx="0.33485377907634933" ry="0.33485377907634933"></ellipse></g></g><g id="eye2"><ellipse cx="17.1" cy="10.4" rx="2.8347877035153837" ry="2.8347877035153837"></ellipse><g transform="translate(17.1, 10.4) rotate(309.6854543300552)"><ellipse cx="0" cy="-1.4173938517576918" rx="0.6697075581526987" ry="0.6697075581526987"></ellipse><ellipse cx="0" cy="-1.4173938517576918" rx="0.33485377907634933" ry="0.33485377907634933"></ellipse></g></g><g id="mouth"><path d="
    M   8.028019510693445 17.673343192690478, 
    S   9,              16.4
        13,              16.5, 
    C   16,              17.1
        17.5,            16.5
        19.421376417329395   17.673343192690478"></path></g><g id="head"><ellipse cx="13.2" cy="12.2" rx="10.42256897185819" ry="9.00148533203044"></ellipse><g transform="translate(0.07743102814180958, 0)"><path d="M.3 12.3c0 1.4 1 2.6 2.4 2.6m0-5.2a2.5 2.5 0 00-2.4 2.6"></path></g><g transform="translate(-0.07743102814180958, 0)"><path d="M26.2 12.3c0 1.4-1.1 2.6-2.5 2.6m0-5.2c1.4 0 2.5 1.2 2.5 2.6"></path></g></g></g></g><g transform="translate(988.8888888888889, 622.2222222222222)"><g transform="scale(3.8610038610038613, 4.201680672268908) " fill="none" stroke-linecap="round" stroke-linejoin="round" stroke-width="1" paint-order="markers fill stroke"><g id="eye1"><ellipse cx="9.1" cy="10.4" rx="2.5976031646102378" ry="2.5976031646102378"></ellipse><g transform="translate(9.1, 10.4) rotate(322.38604315126724)"><ellipse cx="0" cy="-1.2988015823051189" rx="0.6789017231087067" ry="0.6789017231087067"></ellipse><ellipse cx="0" cy="-1.2988015823051189" rx="0.33945086155435333" ry="0.33945086155435333"></ellipse></g></g><g id="eye2"><ellipse cx="17.1" cy="10.4" rx="2.5976031646102378" ry="2.5976031646102378"></ellipse><g transform="translate(17.1, 10.4) rotate(322.38604315126724)"><ellipse cx="0" cy="-1.2988015823051189" rx="0.6789017231087067" ry="0.6789017231087067"></ellipse><ellipse cx="0" cy="-1.2988015823051189" rx="0.33945086155435333" ry="0.33945086155435333"></ellipse></g></g><g id="mouth"><path d="
    M   8.99148715561266 17.699607730742127, 
    S   9,              16.4
        13,              16.5, 
    C   16,              17.1
        17.5,            16.5
        19.467820341682476   17.699607730742127"></path></g><g id="head"><ellipse cx="13.2" cy="12.2" rx="9.016891596997993" ry="10.828940761092053"></ellipse><g transform="translate(1.4831084030020065, 0)"><path d="M.3 12.3c0 1.4 1 2.6 2.4 2.6m0-5.2a2.5 2.5 0 00-2.4 2.6"></path></g><g transform="translate(-1.4831084030020065, 0)"><path d="M26.2 12.3c0 1.4-1.1 2.6-2.5 2.6m0-5.2c1.4 0 2.5 1.2 2.5 2.6"></path></g></g></g></g></g></g></svg>